0
SECTION
2
HEADER
9
$ACADVER
1
AC1014
9
$HANDSEED
5
FFFF
0
ENDSEC
0
SECTION
2
TABLES
0
TABLE
2
VPORT
5
8
100
AcDbSymbolTable
0
ENDTAB
0
TABLE
2
LTYPE
5
5
100
AcDbSymbolTable
0
LTYPE
5
14
100
AcDbSymbolTableRecord
100
AcDbLinetypeTableRecord
2
BYBLOCK
70
0
0
LTYPE
5
15
100
AcDbSymbolTableRecord
100
AcDbLinetypeTableRecord
2
BYLAYER
70
0
0
ENDTAB
0
TABLE
2
LAYER
5
2
100
AcDbSymbolTable
70
2
0
LAYER
5
50
100
AcDbSymbolTableRecord
100
AcDbLayerTableRecord
2
0
70
0
6
CONTINUOUS
0
ENDTAB
0
TABLE
2
STYLE
5
3
100
AcDbSymbolTable
70
1
0
STYLE
5
11
100
AcDbSymbolTableRecord
100
AcDbTextStyleTableRecord
2
STANDARD
70
0
0
ENDTAB
0
TABLE
2
VIEW
5
6
100
AcDbSymbolTable
70
0
0
ENDTAB
0
TABLE
2
UCS
5
7
100
AcDbSymbolTable
70
0
0
ENDTAB
0
TABLE
2
APPID
5
9
100
AcDbSymbolTable
70
2
0
APPID
5
12
100
AcDbSymbolTableRecord
100
AcDbRegAppTableRecord
2
ACAD
70
0
0
ENDTAB
0
TABLE
2
DIMSTYLE
5
A
100
AcDbSymbolTable
70
1
0
ENDTAB
0
TABLE
2
BLOCK_RECORD
5
1
100
AcDbSymbolTable
70
1
0
BLOCK_RECORD
5
1F
100
AcDbSymbolTableRecord
100
AcDbBlockTableRecord
2
*MODEL_SPACE
0
BLOCK_RECORD
5
1B
100
AcDbSymbolTableRecord
100
AcDbBlockTableRecord
2
*PAPER_SPACE
0
ENDTAB
0
ENDSEC
0
SECTION
2
BLOCKS
0
BLOCK
5
20
100
AcDbEntity
100
AcDbBlockBegin
2
*MODEL_SPACE
0
ENDBLK
5
21
100
AcDbEntity
100
AcDbBlockEnd
0
BLOCK
5
1C
100
AcDbEntity
100
AcDbBlockBegin
2
*PAPER_SPACE
0
ENDBLK
5
1D
100
AcDbEntity
100
AcDbBlockEnd
0
ENDSEC
0
SECTION
2
ENTITIES
0
LINE
5
100
100
AcDbEntity
8
0
100
AcDbLine
10
-355.48745355947585
20
-99.785133984010798
30
0
11
-355.48745355947585
21
-56.598842170160388
31
0
0
ARC
5
101
100
AcDbEntity
8
0
100
AcDbCircle
10
-356.98745355947597
20
-56.598842170160388
30
0
40
1.5000000000000568
100
AcDbArc
50
0
51
90
0
LINE
5
102
100
AcDbEntity
8
0
100
AcDbLine
10
-356.98745355947597
20
-55.098842170160381
30
0
11
-388.16694548378723
21
-55.098842170160381
31
0
0
ARC
5
103
100
AcDbEntity
8
0
100
AcDbCircle
10
-388.16694548378706
20
-65.098842170160353
30
0
40
9.9999999999999734
100
AcDbArc
50
90.000000000000981
51
150.00000000000063
0
LINE
5
104
100
AcDbEntity
8
0
100
AcDbLine
10
-396.82719952163148
20
-60.098842170160452
30
0
11
-402.60070221352777
21
-70.098842170160424
31
0
0
ARC
5
105
100
AcDbEntity
8
0
100
AcDbCircle
10
-411.26095625137214
20
-65.098842170160424
30
0
40
9.9999999999999556
100
AcDbArc
50
270
51
329.99999999999994
0
LINE
5
106
100
AcDbEntity
8
0
100
AcDbLine
10
-411.26095625137214
20
-75.098842170160381
30
0
11
-413.48745355947591
21
-75.098842170160367
31
0
0
ARC
5
107
100
AcDbEntity
8
0
100
AcDbCircle
10
-413.48745355947585
20
-77.098842170160395
30
0
40
2.0000000000000284
100
AcDbArc
50
90.000000000001634
51
180
0
LINE
5
108
100
AcDbEntity
8
0
100
AcDbLine
10
-415.48745355947585
20
-77.098842170160395
30
0
11
-415.48745355947585
21
-90.956706546429444
31
0
0
ARC
5
109
100
AcDbEntity
8
0
100
AcDbCircle
10
-405.48745355947585
20
-90.956706546429444
30
0
40
10
100
AcDbArc
50
180
51
224.99999999999989
0
LINE
5
110
100
AcDbEntity
8
0
100
AcDbLine
10
-412.55852137134139
20
-98.027774358294948
30
0
11
-392.83926805540159
21
-117.74702767423364
31
0
0
ARC
5
111
100
AcDbEntity
8
0
100
AcDbCircle
10
-438.8012088325271
20
-163.70896845136031
30
0
40
65.000000000000597
100
AcDbArc
50
14.451737341923682
51
45.000000000000732
0
ARC
5
112
100
AcDbEntity
8
0
100
AcDbCircle
10
-378.76300027448974
20
-148.23597542668355
30
0
40
2.999999999999984
100
AcDbArc
50
-40.000000000000519
51
14.451737341941552
0
LINE
5
113
100
AcDbEntity
8
0
100
AcDbLine
10
-376.46486694513283
20
-150.16433825574319
30
0
11
-378.78558688883282
21
-152.93006458605265
31
0
0
ARC
5
114
100
AcDbEntity
8
0
100
AcDbCircle
10
-376.48745355947585
20
-154.85842741511226
30
0
40
3.0000000000000266
100
AcDbArc
50
140.0000000000006
51
179.9999547822261
0
LINE
5
115
100
AcDbEntity
8
0
100
AcDbLine
10
-379.48745355947494
20
-154.85842504731971
30
0
11
-379.48745355947585
21
-176.53925692520863
31
0
0
ARC
5
116
100
AcDbEntity
8
0
100
AcDbCircle
10
-376.48745355947585
20
-176.53925692520863
30
0
40
3.0000000000000426
100
AcDbArc
50
180
51
219.9999999999998
0
LINE
5
117
100
AcDbEntity
8
0
100
AcDbLine
10
-378.78558688883282
20
-178.46761975426827
30
0
11
-376.38666391436789
21
-181.32654482744371
31
0
0
ARC
5
118
100
AcDbEntity
8
0
100
AcDbCircle
10
-374.08853058501097
20
-179.39818199838413
30
0
40
2.9999999999999609
100
AcDbArc
50
219.99999999999969
51
270.0000000000021
0
LINE
5
119
100
AcDbEntity
8
0
100
AcDbLine
10
-374.08853058501086
20
-182.39818199838408
30
0
11
-356.88637655141474
21
-182.39818492166339
31
0
0
ARC
5
120
100
AcDbEntity
8
0
100
AcDbCircle
10
-356.88637653394096
20
-179.39818199838402
30
0
40
3.0000029232793679
100
AcDbArc
50
269.9999996662757
51
319.99999999999937
0
LINE
5
121
100
AcDbEntity
8
0
100
AcDbLine
10
-354.58824320458399
20
-181.32654482744371
30
0
11
-352.18932018062742
21
-178.46761622659503
31
0
0
ARC
5
122
100
AcDbEntity
8
0
100
AcDbCircle
10
-354.48745355947597
20
-176.53925692520863
30
0
40
2.9999977703693332
100
AcDbArc
50
-39.999947781216719
51
0
0
LINE
5
123
100
AcDbEntity
8
0
100
AcDbLine
10
-351.48745355947591
20
-176.53925692520863
30
0
11
-351.48745355947403
21
-168.49098333350955
31
0
0
ARC
5
124
100
AcDbEntity
8
0
100
AcDbCircle
10
-348.48745355947585
20
-168.49098668508537
30
0
40
3.0000000000000275
100
AcDbArc
50
140.00000183528701
51
179.99993598974785
0
LINE
5
125
100
AcDbEntity
8
0
100
AcDbLine
10
-350.78558695060173
20
-166.5626239296391
30
0
11
-342.82700912828614
21
-157.077960217954
31
0
0
ARC
5
126
100
AcDbEntity
8
0
100
AcDbCircle
10
-350.48745355947619
20
-150.65008412108847
30
0
40
10.000000000000263
100
AcDbArc
50
320.0000000000004
51
360
0
LINE
5
127
100
AcDbEntity
8
0
100
AcDbLine
10
-340.48745355947585
20
-150.65008412108855
30
0
11
-340.48745355947585
21
-123.06940491863793
31
0
0
ARC
5
128
100
AcDbEntity
8
0
100
AcDbCircle
10
-350.48745355947602
20
-123.06940491863797
30
0
40
10.000000000000142
100
AcDbArc
50
0
51
44.999994958487243
0
LINE
5
129
100
AcDbEntity
8
0
100
AcDbLine
10
-343.41638512542022
20
-115.99833772896278
30
0
11
-352.55852137134139
21
-106.85620148304139
31
0
0
ARC
5
130
100
AcDbEntity
8
0
100
AcDbCircle
10
-345.48745355947585
20
-99.78513367117597
30
0
40
10.000000000000004
100
AcDbArc
50
180.00000190909591
51
224.99999999999952
0
LWPOLYLINE
5
131
100
AcDbEntity
8
0
100
AcDbPolyline
90
4
70
1
43
0.0
10
-370.98679299845071
20
-179.39817884198962
10
-359.98811367346616
20
-179.39817884198962
10
-359.98811367346616
20
-175.09884366027651
10
-370.98679299845071
20
-175.09884366027651
0
LWPOLYLINE
5
132
100
AcDbEntity
8
0
100
AcDbPolyline
90
6
70
1
43
0.0
10
-368.32745354070039
20
-168.99950036041079
10
-370.98679299845071
20
-171.65884354345141
10
-370.98679299845071
20
-173.29884299270449
10
-359.98811367346616
20
-173.29884299270449
10
-359.98811367346616
20
-171.65884354345141
10
-362.64745359687777
20
-168.99950036041079
0
CIRCLE
5
133
100
AcDbEntity
8
0
100
AcDbCircle
10
-375.48745355947585
20
-177.2485120842706
30
0
40
1.7500000000000071
0
CIRCLE
5
134
100
AcDbEntity
8
0
100
AcDbCircle
10
-385.48745355947585
20
-65.098842170160395
30
0
40
2.5
0
CIRCLE
5
135
100
AcDbEntity
8
0
100
AcDbCircle
10
-365.48745355947585
20
-65.098842170160395
30
0
40
2.4999999999999822
0
CIRCLE
5
136
100
AcDbEntity
8
0
100
AcDbCircle
10
-365.48745355947585
20
-145.0988421701604
30
0
40
2.5
0
CIRCLE
5
137
100
AcDbEntity
8
0
100
AcDbCircle
10
-365.48745355947574
20
-125.0988421701604
30
0
40
2.5
0
CIRCLE
5
138
100
AcDbEntity
8
0
100
AcDbCircle
10
-365.48745355947597
20
-105.09884217016037
30
0
40
2.4999999999999112
0
CIRCLE
5
139
100
AcDbEntity
8
0
100
AcDbCircle
10
-405.48745355947585
20
-85.098842170160381
30
0
40
2.4999999999999645
0
CIRCLE
5
140
100
AcDbEntity
8
0
100
AcDbCircle
10
-385.48745355947585
20
-85.098842170160381
30
0
40
2.5
0
CIRCLE
5
141
100
AcDbEntity
8
0
100
AcDbCircle
10
-365.48745355947585
20
-165.09884217016042
30
0
40
2.5
0
CIRCLE
5
142
100
AcDbEntity
8
0
100
AcDbCircle
10
-365.48745355947585
20
-85.098842170160381
30
0
40
2.5
0
CIRCLE
5
143
100
AcDbEntity
8
0
100
AcDbCircle
10
-369.48745355947528
20
-155.09884217015701
30
0
40
1.7500000000000071
0
CIRCLE
5
144
100
AcDbEntity
8
0
100
AcDbCircle
10
-361.48745355947534
20
-155.09884217015701
30
0
40
1.7500000000000071
0
CIRCLE
5
145
100
AcDbEntity
8
0
100
AcDbCircle
10
-375.48745355947585
20
-164.9995023419369
30
0
40
1.7500000000009841
0
CIRCLE
5
146
100
AcDbEntity
8
0
100
AcDbCircle
10
-355.48745355947585
20
-164.9995023419369
30
0
40
1.7500000000009663
0
CIRCLE
5
147
100
AcDbEntity
8
0
100
AcDbCircle
10
-355.48745355947585
20
-177.2485120842706
30
0
40
1.7500000000000071
0
CIRCLE
5
148
100
AcDbEntity
8
0
100
AcDbCircle
10
-347.98745355947585
20
-121.68670637117802
30
0
40
3.1750000000000078
0
CIRCLE
5
149
100
AcDbEntity
8
0
100
AcDbCircle
10
-347.98745355947585
20
-152.96850133193595
30
0
40
3.1749999999999901
0
LINE
5
150
100
AcDbEntity
8
0
100
AcDbLine
10
-355.48745355947585
20
-99.785133984010798
30
0
11
-355.48745355947585
21
-56.598842170160388
31
0
0
ARC
5
151
100
AcDbEntity
8
0
100
AcDbCircle
10
-356.98745355947597
20
-56.598842170160388
30
0
40
1.5000000000000568
100
AcDbArc
50
0
51
90
0
LINE
5
152
100
AcDbEntity
8
0
100
AcDbLine
10
-356.98745355947597
20
-55.098842170160381
30
0
11
-388.16694548378723
21
-55.098842170160381
31
0
0
ARC
5
153
100
AcDbEntity
8
0
100
AcDbCircle
10
-388.16694548378706
20
-65.098842170160353
30
0
40
9.9999999999999734
100
AcDbArc
50
90.000000000000981
51
150.00000000000071
0
LINE
5
154
100
AcDbEntity
8
0
100
AcDbLine
10
-396.82719952163148
20
-60.098842170160466
30
0
11
-402.60070221352777
21
-70.098842170160424
31
0
0
ARC
5
155
100
AcDbEntity
8
0
100
AcDbCircle
10
-411.26095625137214
20
-65.098842170160424
30
0
40
9.9999999999999467
100
AcDbArc
50
270
51
329.99999999999994
0
LINE
5
156
100
AcDbEntity
8
0
100
AcDbLine
10
-411.26095625137214
20
-75.098842170160381
30
0
11
-413.48745355947591
21
-75.098842170160367
31
0
0
ARC
5
157
100
AcDbEntity
8
0
100
AcDbCircle
10
-413.48745355947585
20
-77.098842170160395
30
0
40
2.0000000000000284
100
AcDbArc
50
90.000000000001634
51
180
0
LINE
5
158
100
AcDbEntity
8
0
100
AcDbLine
10
-415.48745355947585
20
-77.098842170160367
30
0
11
-415.48745355947585
21
-90.956706546429444
31
0
0
ARC
5
159
100
AcDbEntity
8
0
100
AcDbCircle
10
-405.48745355947585
20
-90.956706546429444
30
0
40
10
100
AcDbArc
50
180
51
224.99999999999989
0
LINE
5
160
100
AcDbEntity
8
0
100
AcDbLine
10
-412.55852137134139
20
-98.027774358294948
30
0
11
-392.83926805540159
21
-117.74702767423364
31
0
0
ARC
5
161
100
AcDbEntity
8
0
100
AcDbCircle
10
-438.80120883252744
20
-163.70896845136036
30
0
40
65.000000000000966
100
AcDbArc
50
14.451737341923657
51
45.000000000000547
0
ARC
5
162
100
AcDbEntity
8
0
100
AcDbCircle
10
-378.76300027448991
20
-148.2359754266835
30
0
40
3.0000000000001381
100
AcDbArc
50
-39.99999999999924
51
14.451737341939179
0
LINE
5
163
100
AcDbEntity
8
0
100
AcDbLine
10
-376.46486694513283
20
-150.16433825574319
30
0
11
-378.78558688883282
21
-152.93006458605265
31
0
0
ARC
5
164
100
AcDbEntity
8
0
100
AcDbCircle
10
-376.48745355947585
20
-154.85842741511226
30
0
40
3.0000000000000266
100
AcDbArc
50
140.0000000000006
51
179.9999547822261
0
LINE
5
165
100
AcDbEntity
8
0
100
AcDbLine
10
-379.48745355947494
20
-154.85842504731971
30
4.6423602785127087e-035
11
-379.48745355947585
21
-176.53925692520863
31
0
0
ARC
5
166
100
AcDbEntity
8
0
100
AcDbCircle
10
-376.48745355947585
20
-176.53925692520863
30
0
40
3.0000000000000426
100
AcDbArc
50
180
51
219.9999999999998
0
LINE
5
167
100
AcDbEntity
8
0
100
AcDbLine
10
-378.78558688883282
20
-178.46761975426827
30
0
11
-376.38666391436789
21
-181.32654482744371
31
0
0
ARC
5
168
100
AcDbEntity
8
0
100
AcDbCircle
10
-374.08853058501097
20
-179.39818199838413
30
0
40
2.9999999999999609
100
AcDbArc
50
219.99999999999969
51
270.0000000000021
0
LINE
5
169
100
AcDbEntity
8
0
100
AcDbLine
10
-374.08853058501086
20
-182.39818199838408
30
0
11
-356.88637655141474
21
-182.39818492166339
31
0
0
ARC
5
170
100
AcDbEntity
8
0
100
AcDbCircle
10
-356.88637653394096
20
-179.39818199838402
30
0
40
3.0000029232793679
100
AcDbArc
50
269.9999996662757
51
319.99999999999824
0
LINE
5
171
100
AcDbEntity
8
0
100
AcDbLine
10
-354.58824320458405
20
-181.32654482744374
30
0
11
-352.18932018062742
21
-178.46761622659503
31
0
0
ARC
5
172
100
AcDbEntity
8
0
100
AcDbCircle
10
-354.48745355947597
20
-176.53925692520863
30
0
40
2.9999977703693332
100
AcDbArc
50
-39.999947781216719
51
0
0
LINE
5
173
100
AcDbEntity
8
0
100
AcDbLine
10
-351.48745355947591
20
-176.53925692520863
30
0
11
-351.48745355947403
21
-168.49098333350955
31
0
0
ARC
5
174
100
AcDbEntity
8
0
100
AcDbCircle
10
-348.48745355947574
20
-168.49098668508549
30
1.8224971463355254e-053
40
3.0000000000002047
100
AcDbArc
50
140.00000183528675
51
179.99993598974785
0
LINE
5
175
100
AcDbEntity
8
0
100
AcDbLine
10
-350.78558695060173
20
-166.5626239296391
30
-1.0552520902854307e-040
11
-342.82700912828614
21
-157.077960217954
31
0
0
ARC
5
176
100
AcDbEntity
8
0
100
AcDbCircle
10
-350.48745355947619
20
-150.65008412108847
30
0
40
10.000000000000263
100
AcDbArc
50
320.0000000000004
51
360
0
LINE
5
177
100
AcDbEntity
8
0
100
AcDbLine
10
-340.48745355947585
20
-150.65008412108855
30
0
11
-340.48745355947585
21
-123.06940491863793
31
0
0
ARC
5
178
100
AcDbEntity
8
0
100
AcDbCircle
10
-350.48745355947602
20
-123.06940491863797
30
0
40
10.000000000000142
100
AcDbArc
50
0
51
44.999994958487243
0
LINE
5
179
100
AcDbEntity
8
0
100
AcDbLine
10
-343.41638512542022
20
-115.99833772896278
30
0
11
-352.55852137134139
21
-106.85620148304139
31
0
0
ARC
5
180
100
AcDbEntity
8
0
100
AcDbCircle
10
-345.48745355947608
20
-99.785133671176027
30
0
40
9.9999999999997904
100
AcDbArc
50
180.00000190909591
51
225.00000000000023
0
CIRCLE
5
181
100
AcDbEntity
8
0
100
AcDbCircle
10
-375.48745355947585
20
-177.2485120842706
30
0
40
1.7500000000000071
0
CIRCLE
5
182
100
AcDbEntity
8
0
100
AcDbCircle
10
-385.48745355947585
20
-65.098842170160395
30
0
40
2.5
0
CIRCLE
5
183
100
AcDbEntity
8
0
100
AcDbCircle
10
-365.48745355947585
20
-65.098842170160395
30
0
40
2.4999999999999822
0
CIRCLE
5
184
100
AcDbEntity
8
0
100
AcDbCircle
10
-365.48745355947585
20
-145.0988421701604
30
0
40
2.5
0
CIRCLE
5
185
100
AcDbEntity
8
0
100
AcDbCircle
10
-365.48745355947574
20
-125.0988421701604
30
0
40
2.5
0
CIRCLE
5
186
100
AcDbEntity
8
0
100
AcDbCircle
10
-365.48745355947597
20
-105.09884217016037
30
0
40
2.4999999999999112
0
CIRCLE
5
187
100
AcDbEntity
8
0
100
AcDbCircle
10
-405.48745355947585
20
-85.098842170160381
30
0
40
2.4999999999999645
0
CIRCLE
5
188
100
AcDbEntity
8
0
100
AcDbCircle
10
-385.48745355947585
20
-85.098842170160381
30
0
40
2.5
0
CIRCLE
5
189
100
AcDbEntity
8
0
100
AcDbCircle
10
-365.48745355947585
20
-165.09884217016042
30
0
40
2.5
0
CIRCLE
5
190
100
AcDbEntity
8
0
100
AcDbCircle
10
-365.48745355947585
20
-85.098842170160381
30
0
40
2.5
0
CIRCLE
5
191
100
AcDbEntity
8
0
100
AcDbCircle
10
-369.48745355947528
20
-155.09884217015701
30
0
40
1.7500000000000071
0
CIRCLE
5
192
100
AcDbEntity
8
0
100
AcDbCircle
10
-361.48745355947534
20
-155.09884217015701
30
0
40
1.7500000000000071
0
CIRCLE
5
193
100
AcDbEntity
8
0
100
AcDbCircle
10
-375.48745355947585
20
-164.9995023419369
30
0
40
1.7500000000009841
0
CIRCLE
5
194
100
AcDbEntity
8
0
100
AcDbCircle
10
-355.48745355947585
20
-164.9995023419369
30
0
40
1.7500000000009663
0
CIRCLE
5
195
100
AcDbEntity
8
0
100
AcDbCircle
10
-355.48745355947585
20
-177.2485120842706
30
0
40
1.7500000000000071
0
LWPOLYLINE
5
196
100
AcDbEntity
8
0
100
AcDbPolyline
90
4
70
1
43
0.0
10
-370.98679299845071
20
-179.39817884198962
10
-359.98811367346616
20
-179.39817884198962
10
-359.98811367346616
20
-175.09884366027651
10
-370.98679299845071
20
-175.09884366027651
0
LWPOLYLINE
5
197
100
AcDbEntity
8
0
100
AcDbPolyline
90
6
70
1
43
0.0
10
-368.32745354070039
20
-168.99950036041079
10
-370.98679299845071
20
-171.65884354345141
10
-370.98679299845071
20
-173.29884299270449
10
-359.98811367346616
20
-173.29884299270449
10
-359.98811367346616
20
-171.65884354345141
10
-362.64745359687777
20
-168.99950036041079
0
CIRCLE
5
198
100
AcDbEntity
8
0
100
AcDbCircle
10
-347.98745355947585
20
-121.68670637117802
30
0
40
3.1750000000000078
0
CIRCLE
5
199
100
AcDbEntity
8
0
100
AcDbCircle
10
-347.98745355947585
20
-152.96850133193595
30
0
40
3.1749999999999901
0
ENDSEC
0
SECTION
2
OBJECTS
0
DICTIONARY
5
C
100
AcDbDictionary
3
ACAD_GROUP
350
D
3
ACAD_MLINESTYLE
350
17
0
DICTIONARY
5
D
100
AcDbDictionary
0
DICTIONARY
5
1A
330
C
100
AcDbDictionary
0
DICTIONARY
5
17
100
AcDbDictionary
0
ENDSEC
0
EOF
