0
SECTION
2
HEADER
9
$ACADVER
1
AC1014
9
$HANDSEED
5
FFFF
0
ENDSEC
0
SECTION
2
TABLES
0
TABLE
2
VPORT
5
8
100
AcDbSymbolTable
0
ENDTAB
0
TABLE
2
LTYPE
5
5
100
AcDbSymbolTable
0
LTYPE
5
14
100
AcDbSymbolTableRecord
100
AcDbLinetypeTableRecord
2
BYBLOCK
70
0
0
LTYPE
5
15
100
AcDbSymbolTableRecord
100
AcDbLinetypeTableRecord
2
BYLAYER
70
0
0
ENDTAB
0
TABLE
2
LAYER
5
2
100
AcDbSymbolTable
70
2
0
LAYER
5
50
100
AcDbSymbolTableRecord
100
AcDbLayerTableRecord
2
0
70
0
6
CONTINUOUS
0
ENDTAB
0
TABLE
2
STYLE
5
3
100
AcDbSymbolTable
70
1
0
STYLE
5
11
100
AcDbSymbolTableRecord
100
AcDbTextStyleTableRecord
2
STANDARD
70
0
0
ENDTAB
0
TABLE
2
VIEW
5
6
100
AcDbSymbolTable
70
0
0
ENDTAB
0
TABLE
2
UCS
5
7
100
AcDbSymbolTable
70
0
0
ENDTAB
0
TABLE
2
APPID
5
9
100
AcDbSymbolTable
70
2
0
APPID
5
12
100
AcDbSymbolTableRecord
100
AcDbRegAppTableRecord
2
ACAD
70
0
0
ENDTAB
0
TABLE
2
DIMSTYLE
5
A
100
AcDbSymbolTable
70
1
0
ENDTAB
0
TABLE
2
BLOCK_RECORD
5
1
100
AcDbSymbolTable
70
1
0
BLOCK_RECORD
5
1F
100
AcDbSymbolTableRecord
100
AcDbBlockTableRecord
2
*MODEL_SPACE
0
BLOCK_RECORD
5
1B
100
AcDbSymbolTableRecord
100
AcDbBlockTableRecord
2
*PAPER_SPACE
0
ENDTAB
0
ENDSEC
0
SECTION
2
BLOCKS
0
BLOCK
5
20
100
AcDbEntity
100
AcDbBlockBegin
2
*MODEL_SPACE
0
ENDBLK
5
21
100
AcDbEntity
100
AcDbBlockEnd
0
BLOCK
5
1C
100
AcDbEntity
100
AcDbBlockBegin
2
*PAPER_SPACE
0
ENDBLK
5
1D
100
AcDbEntity
100
AcDbBlockEnd
0
ENDSEC
0
SECTION
2
ENTITIES
0
ARC
5
100
100
AcDbEntity
8
0
100
AcDbCircle
10
-7.437436988151001
20
-86.349999999999994
30
0
40
2.3499999999999943
100
AcDbArc
50
270
51
313.49503836595358
0
LINE
5
101
100
AcDbEntity
8
0
100
AcDbLine
10
-5.8199513569051442
20
-88.054769847431956
30
0
11
-3.5000000000000004
21
-85.8536
31
0
0
ARC
5
102
100
AcDbEntity
8
0
100
AcDbCircle
10
-4.1400460726060011
20
-85.147319842239995
30
0
40
0.9531477515599871
100
AcDbArc
50
-47.816461800640887
51
137.81858965903751
0
LINE
5
103
100
AcDbEntity
8
0
100
AcDbLine
10
-4.8463499999982709
20
-84.507300000001564
30
0
11
-7.5
21
-84.507300000000001
31
0
0
ARC
5
104
100
AcDbEntity
8
0
100
AcDbCircle
10
-7.5
20
-80.507300000000001
30
0
40
4.0000000000000036
100
AcDbArc
50
90
51
270
0
LINE
5
105
100
AcDbEntity
8
0
100
AcDbLine
10
-7.5
20
-76.507299999999987
30
0
11
7.5
21
-76.507300000000001
31
0
0
ARC
5
106
100
AcDbEntity
8
0
100
AcDbCircle
10
7.5
20
-80.507300000000001
30
0
40
4.0000000000000036
100
AcDbArc
50
-90
51
90
0
LINE
5
107
100
AcDbEntity
8
0
100
AcDbLine
10
7.5
20
-84.507300000000001
30
0
11
4.8463500000000002
21
-84.507300000000001
31
0
0
ARC
5
108
100
AcDbEntity
8
0
100
AcDbCircle
10
4.1400460726060011
20
-85.147319842239995
30
0
40
0.95314775156483222
100
AcDbArc
50
42.181410340962337
51
227.81646180064089
0
LINE
5
109
100
AcDbEntity
8
0
100
AcDbLine
10
3.4999999999983138
20
-85.853600000001862
30
0
11
5.8199513569069996
21
-88.054769847430009
31
0
0
ARC
5
110
100
AcDbEntity
8
0
100
AcDbCircle
10
7.437436988151001
20
-86.349999999999994
30
0
40
2.3499999999973058
100
AcDbArc
50
226.50496163404651
51
270
0
LINE
5
111
100
AcDbEntity
8
0
100
AcDbLine
10
7.437436988151001
20
-88.699999999999989
30
0
11
17.91079033406
21
-88.700000000000017
31
0
0
ARC
5
112
100
AcDbEntity
8
0
100
AcDbCircle
10
17.91079033406
20
-82.249025119609996
30
0
40
6.4509748803900102
100
AcDbArc
50
270
51
357.40765161229592
0
ARC
5
113
100
AcDbEntity
8
0
100
AcDbCircle
10
24.888324459580002
20
-81.927696791770018
30
0
40
0.81250000000000588
100
AcDbArc
50
94.229162272693969
51
228.98943237690568
0
LINE
5
114
100
AcDbEntity
8
0
100
AcDbLine
10
24.828405998360527
20
-81.117409171227095
30
0
11
25.349853438160004
21
-79.549030669589996
31
0
0
ARC
5
115
100
AcDbEntity
8
0
100
AcDbCircle
10
27.579832403240001
20
-80.290444059869998
30
0
40
2.3500000000000014
100
AcDbArc
50
95.91802013360271
51
161.60929732501208
0
ARC
5
116
100
AcDbEntity
8
0
100
AcDbCircle
10
25.855026922610005
20
-63.651030241300006
30
0
40
14.378569758698115
100
AcDbArc
50
275.91802013367777
51
351.99999999999358
0
LINE
5
117
100
AcDbEntity
8
0
100
AcDbLine
10
40.093665428823577
20
-65.652140381990506
30
0
11
44.917996814830005
21
-31.325238907240003
31
0
0
ARC
5
118
100
AcDbEntity
8
0
100
AcDbCircle
10
47.245126776370007
20
-31.652295694500001
30
0
40
2.3500000000000005
100
AcDbArc
50
121.00000000002827
51
171.99999999989808
0
LINE
5
119
100
AcDbEntity
8
0
100
AcDbLine
10
46.034787300330386
20
-29.637952537850634
30
0
11
64.875083436703406
21
-18.317560538684795
31
0
0
SPLINE
5
120
100
AcDbEntity
8
0
100
AcDbSpline
70
1064
71
3
72
8
73
4
74
0
42
0.000000001
43
0.0000000001
44
0.0000000001
40
0
40
0
40
0
40
0
40
1
40
1
40
1
40
1
10
67.308318890981369
20
-14.330186374588298
30
-3.3306690738754696e-015
10
67.069357609358079
20
-16.037485255970317
30
-3.3306690738754696e-015
10
66.353447711390828
20
-17.43074699886013
30
0
10
64.875108878946591
20
-18.317602847135298
30
0
0
LINE
5
121
100
AcDbEntity
8
0
100
AcDbLine
10
67.308280287434599
20
-14.330180943900855
30
0
11
69.517848700089928
21
1.3917152390399945
31
0
0
SPLINE
5
122
100
AcDbEntity
8
0
100
AcDbSpline
70
1064
71
3
72
14
73
10
74
0
42
0.000000001
43
0.0000000001
44
0.0000000001
40
0
40
0
40
0
40
0
40
0.50003947033072216
40
0.50003947033072216
40
0.50003947033072216
40
0.75752796509809228
40
0.75752796509809228
40
0.75752796509809228
40
1
40
1
40
1
40
1
10
66.786025103474188
20
9.4320795632815457
30
0
10
67.652342493164284
20
8.1903047864122609
30
0
10
68.391559505263785
20
6.9178386368007239
30
0
10
68.903627090892229
20
5.5912199190323344
30
0
10
69.167309299329531
20
4.9080957317707217
30
0
10
69.370778008886973
20
4.2106026762139628
30
0
10
69.48491303131749
20
3.4917340501073744
30
0
10
69.592391818543746
20
2.8147890908513085
30
0
10
69.62061680929483
20
2.1186904910112521
30
0
10
69.517901526681257
20
1.3917078400530405
30
0
0
LINE
5
123
100
AcDbEntity
8
0
100
AcDbLine
10
66.786009133131117
20
9.4320684281349259
30
0
11
58.427898105550007
21
21.419694441580003
31
0
0
ARC
5
124
100
AcDbEntity
8
0
100
AcDbCircle
10
60.355600000000003
20
22.763742582879999
30
0
40
2.3500000000000032
100
AcDbArc
50
180
51
214.88529620123279
0
LINE
5
125
100
AcDbEntity
8
0
100
AcDbLine
10
58.005600000000001
20
22.763742582879999
30
0
11
58.005600000000008
21
46.834915777540004
31
0
0
ARC
5
126
100
AcDbEntity
8
0
100
AcDbCircle
10
60.355600000000003
20
46.834915777540004
30
0
40
2.3500000000000045
100
AcDbArc
50
145.14163747474737
51
180
0
LINE
5
127
100
AcDbEntity
8
0
100
AcDbLine
10
58.427266506629472
20
48.178057593710371
30
0
11
67.733176698814162
21
61.538447460013984
31
0
0
SPLINE
5
128
100
AcDbEntity
8
0
100
AcDbSpline
70
1064
71
3
72
11
73
7
74
0
42
0.000000001
43
0.0000000001
44
0.0000000001
40
0
40
0
40
0
40
0
40
0.50004173564443244
40
0.50004173564443244
40
0.50004173564443244
40
1
40
1
40
1
40
1
10
70.000067938205618
20
67.589500065386545
30
-3.3306690738754696e-015
10
70.001152821610546
20
66.462279741987629
30
-3.3306690738754696e-015
10
69.737647371981524
20
65.417256251726826
30
0
10
69.331737474202498
20
64.417662381495006
30
0
10
68.925895334412289
20
63.418235372112463
30
-1.1102230246251565e-015
10
68.377408613225427
20
62.463188455702927
30
0
10
67.73318164225536
20
61.538444016733763
30
0
0
LINE
5
129
100
AcDbEntity
8
0
100
AcDbLine
10
70
20
67.589500133800726
30
0
11
70
21
85.340699999999998
31
0
0
ARC
5
130
100
AcDbEntity
8
0
100
AcDbCircle
10
66.640699999999995
20
85.340699999999998
30
0
40
3.3593000000000028
100
AcDbArc
50
0
51
90
0
LINE
5
131
100
AcDbEntity
8
0
100
AcDbLine
10
66.640699999999995
20
88.699999999999989
30
0
11
-66.640000000000001
21
88.700000000000017
31
0
0
ARC
5
132
100
AcDbEntity
8
0
100
AcDbCircle
10
-66.640000000000001
20
85.340000000000003
30
0
40
3.360000000000003
100
AcDbArc
50
90
51
180
0
LINE
5
133
100
AcDbEntity
8
0
100
AcDbLine
10
-70.000000000000014
20
85.340000000000003
30
0
11
-70
21
67.589500133364368
31
0
0
SPLINE
5
134
100
AcDbEntity
8
0
100
AcDbSpline
70
1064
71
3
72
11
73
7
74
0
42
0.000000001
43
0.0000000001
44
0.0000000001
40
0
40
0
40
0
40
0
40
0.50004170460498676
40
0.50004170460498676
40
0.50004170460498676
40
1
40
1
40
1
40
1
10
-70.000067827567108
20
67.589500065173326
30
0
10
-70.001150823747437
20
66.462397431672883
30
0
10
-69.737830193056283
20
65.417397924854342
30
0
10
-69.332153441919999
20
64.417791082747499
30
0
10
-68.926544359494159
20
63.418350979567052
30
0
10
-68.378339863801955
20
62.4632565697366
30
0
10
-67.73441630413798
20
61.538444017235669
30
0
0
LINE
5
135
100
AcDbEntity
8
0
100
AcDbLine
10
-67.73441630413798
20
61.538444017235676
30
0
11
-58.431323409220006
21
48.174830757759999
31
0
0
ARC
5
136
100
AcDbEntity
8
0
100
AcDbCircle
10
-60.360000000000007
20
46.832181656849997
30
0
40
2.3500000000000032
100
AcDbArc
50
0
51
34.843723981856904
0
LINE
5
137
100
AcDbEntity
8
0
100
AcDbLine
10
-58.010000000000005
20
46.832181656849997
30
0
11
-58.010000000000005
21
22.760348531079998
31
0
0
ARC
5
138
100
AcDbEntity
8
0
100
AcDbCircle
10
-60.360000000000007
20
22.760348531079998
30
0
40
2.3500000000000014
100
AcDbArc
50
-34.87064298275579
51
0
0
LINE
5
139
100
AcDbEntity
8
0
100
AcDbLine
10
-58.431954432438587
20
21.416793437529016
30
0
11
-66.783488546605412
21
9.4320684282055023
31
0
0
SPLINE
5
140
100
AcDbEntity
8
0
100
AcDbSpline
70
1064
71
3
72
14
73
10
74
0
42
0.000000001
43
0.0000000001
44
0.0000000001
40
0
40
0
40
0
40
0
40
0.24257518932664709
40
0.24257518932664709
40
0.24257518932664709
40
0.50003905104954882
40
0.50003905104954882
40
0.50003905104954882
40
1
40
1
40
1
40
1
10
-69.518763322160083
20
1.3917078171583932
30
-1.1102230246251565e-015
10
-69.621531942205323
20
2.1190212735394343
30
-1.1102230246251565e-015
10
-69.592725604454515
20
2.8153216235627463
30
0
10
-69.484614808226269
20
3.4924645644977503
30
0
10
-69.369868435490744
20
4.21116888457051
30
0
10
-69.165824766463942
20
4.9085183890091884
30
0
10
-68.901712920328904
20
5.5915417536130008
30
0
10
-68.38884246022198
20
6.9178832729139845
30
0
10
-67.649397514705868
20
8.1902418034446107
30
0
10
-66.783504662011765
20
9.4320796583731052
30
0
0
LINE
5
141
100
AcDbEntity
8
0
100
AcDbLine
10
-69.518710336788686
20
1.3917152380770115
30
0
11
-67.309141924286735
21
-14.330180943772444
31
0
0
SPLINE
5
142
100
AcDbEntity
8
0
100
AcDbSpline
70
1064
71
3
72
8
73
4
74
0
42
0.000000001
43
0.0000000001
44
0.0000000001
40
0
40
0
40
0
40
0
40
1
40
1
40
1
40
1
10
-64.87510803854353
20
-18.317601444865467
30
0
10
-66.353583987802125
20
-17.430633758699333
30
0
10
-67.070193619968251
20
-16.037659074713197
30
0
10
-67.309180773188899
20
-14.330186408967675
30
0
0
LINE
5
143
100
AcDbEntity
8
0
100
AcDbLine
10
-64.875083439105325
20
-18.317560537241736
30
0
11
-46.034787300330002
21
-29.637952537850005
31
0
0
ARC
5
144
100
AcDbEntity
8
0
100
AcDbCircle
10
-47.245126776370007
20
-31.652295694500001
30
0
40
2.350000000000001
100
AcDbArc
50
8.0000000001019522
51
58.999999999971628
0
LINE
5
145
100
AcDbEntity
8
0
100
AcDbLine
10
-44.917996814827895
20
-31.325238907239704
30
0
11
-40.093665428820003
21
-65.652140381989994
31
0
0
ARC
5
146
100
AcDbEntity
8
0
100
AcDbCircle
10
-25.855026922610005
20
-63.651030241300006
30
0
40
14.378569758696393
100
AcDbArc
50
188.00000000000642
51
264.08197986632229
0
ARC
5
147
100
AcDbEntity
8
0
100
AcDbCircle
10
-27.579832403240001
20
-80.290444059869998
30
0
40
2.3500000000000019
100
AcDbArc
50
18.3907026749878
51
84.081979866397276
0
LINE
5
148
100
AcDbEntity
8
0
100
AcDbLine
10
-25.349853438157123
20
-79.549030669589044
30
0
11
-24.828405998360005
21
-81.117409171220004
31
0
0
ARC
5
149
100
AcDbEntity
8
0
100
AcDbCircle
10
-24.888324459580002
20
-81.927696791770018
30
0
40
0.81250000000000222
100
AcDbArc
50
-48.989432377093941
51
85.770837727306201
0
ARC
5
150
100
AcDbEntity
8
0
100
AcDbCircle
10
-17.91079033406
20
-82.249025119609996
30
0
40
6.4509748803933578
100
AcDbArc
50
182.5923483877493
51
270
0
LINE
5
151
100
AcDbEntity
8
0
100
AcDbLine
10
-17.91079033406
20
-88.700000000003996
30
0
11
-7.437436988151001
21
-88.699999999999989
31
0
0
LWPOLYLINE
5
152
100
AcDbEntity
8
0
100
AcDbPolyline
90
4
70
1
43
0.0
10
12.5
20
-45.77000000000001
10
12.5
20
-35.770000000000003
42
0.99999999999999989
10
-12.5
20
-35.770000000000003
10
-12.5
20
-45.77000000000001
42
0.99999999999999989
0
LWPOLYLINE
5
153
100
AcDbEntity
8
0
100
AcDbPolyline
90
4
70
1
43
0.0
10
26.110000000000003
20
-21.699999999999999
10
26.110000000000003
20
-12.699999999999999
42
0.99999999999999989
10
21.030000000000001
20
-12.699999999999999
10
21.030000000000001
20
-21.699999999999999
42
0.99999999999999989
0
LWPOLYLINE
5
154
100
AcDbEntity
8
0
100
AcDbPolyline
90
4
70
1
43
0.0
10
-21.030000000000001
20
-21.699999999999999
10
-21.030000000000001
20
-12.699999999999999
42
0.99999999999999989
10
-26.110000000000003
20
-12.699999999999999
10
-26.110000000000003
20
-21.699999999999999
42
0.99999999999999989
0
LWPOLYLINE
5
155
100
AcDbEntity
8
0
100
AcDbPolyline
90
4
70
1
43
0.0
10
26.110000000000003
20
-68.840000000000003
10
26.110000000000003
20
-59.840000000000011
42
0.99999999999999989
10
21.030000000000001
20
-59.840000000000011
10
21.030000000000001
20
-68.840000000000003
42
0.99999999999999989
0
LWPOLYLINE
5
156
100
AcDbEntity
8
0
100
AcDbPolyline
90
4
70
1
43
0.0
10
-21.030000000000001
20
-68.840000000000003
10
-21.030000000000001
20
-59.840000000000011
42
0.99999999999999989
10
-26.110000000000003
20
-59.840000000000011
10
-26.110000000000003
20
-68.840000000000003
42
0.99999999999999989
0
LWPOLYLINE
5
157
100
AcDbEntity
8
0
100
AcDbPolyline
90
8
70
1
43
0.0
10
19.8032
20
63.651899999999998
10
-19.8032
20
63.651899999999998
42
0.41421356237309503
10
-35.850000000000001
20
47.6051
10
-35.850000000000001
20
21.998700000000003
42
0.41421356237309503
10
-19.8032
20
5.9519000000000002
10
19.8032
20
5.9519000000000011
42
0.41421356237309503
10
35.850000000000001
20
21.998700000000003
10
35.850000000000001
20
47.6051
42
0.41421356237309503
0
CIRCLE
5
158
100
AcDbEntity
8
0
100
AcDbCircle
10
22.499996423457027
20
-4.5126702625300652
30
0
40
2.5
0
CIRCLE
5
159
100
AcDbEntity
8
0
100
AcDbCircle
10
-22.499994453933834
20
-4.527328214448243
30
0
40
2.5
0
CIRCLE
5
160
100
AcDbEntity
8
0
100
AcDbCircle
10
56.5
20
75.180000000000007
30
0
40
3.6000000000000005
0
CIRCLE
5
161
100
AcDbEntity
8
0
100
AcDbCircle
10
-56.5
20
75.180000000000007
30
0
40
3.6000000000000005
0
CIRCLE
5
162
100
AcDbEntity
8
0
100
AcDbCircle
10
56.5
20
-4.5199999999999996
30
0
40
2.5
0
CIRCLE
5
163
100
AcDbEntity
8
0
100
AcDbCircle
10
-56.5
20
-4.5199999999999996
30
0
40
2.5
0
CIRCLE
5
164
100
AcDbEntity
8
0
100
AcDbCircle
10
33.799999999999997
20
-49.95000000000001
30
0
40
2.7250000000000001
0
CIRCLE
5
165
100
AcDbEntity
8
0
100
AcDbCircle
10
-33.799999999999997
20
-49.95000000000001
30
0
40
2.7250000000000001
0
CIRCLE
5
166
100
AcDbEntity
8
0
100
AcDbCircle
10
17.899999999999999
20
-80.507300000000001
30
0
40
2.7250000000000001
0
CIRCLE
5
167
100
AcDbEntity
8
0
100
AcDbCircle
10
-17.899999999999999
20
-80.507300000000001
30
0
40
2.7250000000000001
0
CIRCLE
5
168
100
AcDbEntity
8
0
100
AcDbCircle
10
22.499996423457027
20
-4.5126702625300652
30
0
40
2.5
0
CIRCLE
5
169
100
AcDbEntity
8
0
100
AcDbCircle
10
-22.499994453933834
20
-4.527328214448243
30
0
40
2.5
0
ARC
5
170
100
AcDbEntity
8
0
100
AcDbCircle
10
-7.437436988151001
20
-86.349999999999994
30
0
40
2.3499999999999943
100
AcDbArc
50
270
51
313.49503836595358
0
LINE
5
171
100
AcDbEntity
8
0
100
AcDbLine
10
-5.8199513569051451
20
-88.054769847431956
30
0
11
-3.5000000000000004
21
-85.8536
31
0
0
ARC
5
172
100
AcDbEntity
8
0
100
AcDbCircle
10
-4.1400460726060011
20
-85.147319842239995
30
0
40
0.9531477515599871
100
AcDbArc
50
-47.816461800640887
51
137.81858965903743
0
LINE
5
173
100
AcDbEntity
8
0
100
AcDbLine
10
-4.8463499999982691
20
-84.507300000001564
30
0
11
-7.5
21
-84.507300000000001
31
0
0
ARC
5
174
100
AcDbEntity
8
0
100
AcDbCircle
10
-7.5
20
-80.507300000000001
30
0
40
4.0000000000000036
100
AcDbArc
50
89.999999999999986
51
270
0
LINE
5
175
100
AcDbEntity
8
0
100
AcDbLine
10
-7.4999999999999991
20
-76.507299999999987
30
0
11
7.5
21
-76.507300000000001
31
0
0
ARC
5
176
100
AcDbEntity
8
0
100
AcDbCircle
10
7.5
20
-80.507300000000001
30
0
40
4.0000000000000036
100
AcDbArc
50
-90
51
90
0
LINE
5
177
100
AcDbEntity
8
0
100
AcDbLine
10
7.4999999999999991
20
-84.507300000000001
30
0
11
4.8463500000000002
21
-84.507300000000001
31
0
0
ARC
5
178
100
AcDbEntity
8
0
100
AcDbCircle
10
4.1400460726060011
20
-85.147319842239995
30
0
40
0.95314775156483222
100
AcDbArc
50
42.181410340962337
51
227.81646180064089
0
LINE
5
179
100
AcDbEntity
8
0
100
AcDbLine
10
3.4999999999983142
20
-85.853600000001862
30
0
11
5.8199513569069996
21
-88.054769847430009
31
0
0
ARC
5
180
100
AcDbEntity
8
0
100
AcDbCircle
10
7.437436988151001
20
-86.349999999999994
30
0
40
2.3499999999973058
100
AcDbArc
50
226.50496163404651
51
269.99999999999994
0
LINE
5
181
100
AcDbEntity
8
0
100
AcDbLine
10
7.4374369881509992
20
-88.699999999999989
30
0
11
17.91079033406
21
-88.700000000000017
31
0
0
ARC
5
182
100
AcDbEntity
8
0
100
AcDbCircle
10
17.91079033406
20
-82.249025119609996
30
0
40
6.4509748803900102
100
AcDbArc
50
270
51
357.40765161229592
0
ARC
5
183
100
AcDbEntity
8
0
100
AcDbCircle
10
24.888324459580002
20
-81.927696791770018
30
0
40
0.81250000000000588
100
AcDbArc
50
94.229162272693969
51
228.98943237690568
0
LINE
5
184
100
AcDbEntity
8
0
100
AcDbLine
10
24.828405998360527
20
-81.117409171227095
30
0
11
25.349853438160004
21
-79.549030669589996
31
0
0
ARC
5
185
100
AcDbEntity
8
0
100
AcDbCircle
10
27.579832403240001
20
-80.290444059869998
30
0
40
2.3500000000000014
100
AcDbArc
50
95.91802013360271
51
161.60929732501208
0
ARC
5
186
100
AcDbEntity
8
0
100
AcDbCircle
10
25.855026922610005
20
-63.651030241300006
30
0
40
14.378569758698115
100
AcDbArc
50
275.91802013367777
51
351.99999999999369
0
LINE
5
187
100
AcDbEntity
8
0
100
AcDbLine
10
40.093665428823577
20
-65.652140381990478
30
0
11
44.917996814830005
21
-31.325238907240003
31
0
0
ARC
5
188
100
AcDbEntity
8
0
100
AcDbCircle
10
47.245126776370022
20
-31.652295694500005
30
0
40
2.3500000000000183
100
AcDbArc
50
121.00000000002865
51
171.99999999989805
0
LINE
5
189
100
AcDbEntity
8
0
100
AcDbLine
10
46.034787300330379
20
-29.637952537850634
30
0
11
64.875083436703406
21
-18.317560538684795
31
0
0
SPLINE
5
190
100
AcDbEntity
8
0
100
AcDbSpline
70
1064
71
3
72
8
73
4
74
0
42
0.000000001
43
0.0000000001
44
0.0000000001
40
0
40
0
40
0
40
0
40
1
40
1
40
1
40
1
10
67.308318890981369
20
-14.330186374588298
30
0
10
67.069357609358079
20
-16.037485255970317
30
0
10
66.353447711390828
20
-17.43074699886013
30
0
10
64.875108878946591
20
-18.317602847135298
30
0
0
LINE
5
191
100
AcDbEntity
8
0
100
AcDbLine
10
67.308280287434599
20
-14.330180943900855
30
0
11
69.517848700089928
21
1.3917152390399945
31
0
0
SPLINE
5
192
100
AcDbEntity
8
0
100
AcDbSpline
70
1064
71
3
72
14
73
10
74
0
42
0.000000001
43
0.0000000001
44
0.0000000001
40
0
40
0
40
0
40
0
40
0.50003947033072216
40
0.50003947033072216
40
0.50003947033072216
40
0.75752796509809228
40
0.75752796509809228
40
0.75752796509809228
40
1
40
1
40
1
40
1
10
66.786025103474188
20
9.4320795632815457
30
0
10
67.652342493164284
20
8.1903047864122609
30
0
10
68.391559505263785
20
6.9178386368007239
30
0
10
68.903627090892229
20
5.5912199190323344
30
0
10
69.167309299329531
20
4.9080957317707217
30
0
10
69.370778008886973
20
4.2106026762139628
30
0
10
69.48491303131749
20
3.4917340501073744
30
0
10
69.592391818543746
20
2.8147890908513085
30
0
10
69.62061680929483
20
2.1186904910112521
30
0
10
69.517901526681257
20
1.3917078400530405
30
0
0
LINE
5
193
100
AcDbEntity
8
0
100
AcDbLine
10
66.786009133131117
20
9.4320684281349259
30
0
11
58.427898105550007
21
21.419694441580003
31
0
0
ARC
5
194
100
AcDbEntity
8
0
100
AcDbCircle
10
60.355600000000138
20
22.763742582880042
30
0
40
2.3500000000001364
100
AcDbArc
50
180
51
214.88529620123174
0
LINE
5
195
100
AcDbEntity
8
0
100
AcDbLine
10
58.005600000000001
20
22.763742582879999
30
0
11
58.005600000000008
21
46.834915777540004
31
0
0
ARC
5
196
100
AcDbEntity
8
0
100
AcDbCircle
10
60.355600000000138
20
46.834915777539969
30
0
40
2.3500000000001342
100
AcDbArc
50
145.14163747474853
51
180
0
LINE
5
197
100
AcDbEntity
8
0
100
AcDbLine
10
58.427266506629472
20
48.178057593710371
30
0
11
67.733176698814162
21
61.538447460013984
31
0
0
SPLINE
5
198
100
AcDbEntity
8
0
100
AcDbSpline
70
1064
71
3
72
11
73
7
74
0
42
0.000000001
43
0.0000000001
44
0.0000000001
40
0
40
0
40
0
40
0
40
0.50004173564443244
40
0.50004173564443244
40
0.50004173564443244
40
1
40
1
40
1
40
1
10
70.000067938205618
20
67.589500065386545
30
0
10
70.001152821610546
20
66.462279741987629
30
0
10
69.737647371981524
20
65.417256251726826
30
0
10
69.331737474202498
20
64.417662381495006
30
0
10
68.925895334412289
20
63.418235372112463
30
0
10
68.377408613225427
20
62.463188455702927
30
0
10
67.73318164225536
20
61.538444016733763
30
0
0
LINE
5
199
100
AcDbEntity
8
0
100
AcDbLine
10
70
20
67.589500133800726
30
0
11
70
21
85.340699999999998
31
0
0
ARC
5
200
100
AcDbEntity
8
0
100
AcDbCircle
10
66.640699999999995
20
85.340699999999998
30
0
40
3.3593000000000028
100
AcDbArc
50
0
51
90
0
LINE
5
201
100
AcDbEntity
8
0
100
AcDbLine
10
66.640699999999995
20
88.699999999999989
30
0
11
-66.640000000000001
21
88.700000000000017
31
0
0
ARC
5
202
100
AcDbEntity
8
0
100
AcDbCircle
10
-66.640000000000001
20
85.340000000000003
30
0
40
3.360000000000003
100
AcDbArc
50
90
51
180
0
LINE
5
203
100
AcDbEntity
8
0
100
AcDbLine
10
-70.000000000000014
20
85.340000000000003
30
0
11
-70
21
67.589500133364368
31
0
0
SPLINE
5
204
100
AcDbEntity
8
0
100
AcDbSpline
70
1064
71
3
72
11
73
7
74
0
42
0.000000001
43
0.0000000001
44
0.0000000001
40
0
40
0
40
0
40
0
40
0.50004170460498676
40
0.50004170460498676
40
0.50004170460498676
40
1
40
1
40
1
40
1
10
-70.000067827567108
20
67.589500065173326
30
0
10
-70.001150823747437
20
66.462397431672883
30
0
10
-69.737830193056283
20
65.417397924854342
30
0
10
-69.332153441919999
20
64.417791082747499
30
0
10
-68.926544359494159
20
63.418350979567052
30
0
10
-68.378339863801955
20
62.4632565697366
30
0
10
-67.73441630413798
20
61.538444017235669
30
0
0
LINE
5
205
100
AcDbEntity
8
0
100
AcDbLine
10
-67.73441630413798
20
61.538444017235676
30
0
11
-58.431323409220006
21
48.174830757759999
31
0
0
ARC
5
206
100
AcDbEntity
8
0
100
AcDbCircle
10
-60.36000000000007
20
46.832181656849976
30
0
40
2.3500000000000654
100
AcDbArc
50
0
51
34.843723981856428
0
LINE
5
207
100
AcDbEntity
8
0
100
AcDbLine
10
-58.010000000000005
20
46.832181656849997
30
0
11
-58.010000000000005
21
22.760348531079998
31
0
0
ARC
5
208
100
AcDbEntity
8
0
100
AcDbCircle
10
-60.359999999999999
20
22.760348531080005
30
0
40
2.3499999999999961
100
AcDbArc
50
325.12935701724399
51
360
0
LINE
5
209
100
AcDbEntity
8
0
100
AcDbLine
10
-58.431954432438587
20
21.416793437529016
30
0
11
-66.783488546605412
21
9.4320684282055023
31
0
0
SPLINE
5
210
100
AcDbEntity
8
0
100
AcDbSpline
70
1064
71
3
72
14
73
10
74
0
42
0.000000001
43
0.0000000001
44
0.0000000001
40
0
40
0
40
0
40
0
40
0.24257518932664709
40
0.24257518932664709
40
0.24257518932664709
40
0.50003905104954882
40
0.50003905104954882
40
0.50003905104954882
40
1
40
1
40
1
40
1
10
-69.518763322160083
20
1.3917078171583932
30
0
10
-69.621531942205323
20
2.1190212735394343
30
0
10
-69.592725604454515
20
2.8153216235627463
30
0
10
-69.484614808226269
20
3.4924645644977503
30
0
10
-69.369868435490744
20
4.21116888457051
30
0
10
-69.165824766463942
20
4.9085183890091884
30
0
10
-68.901712920328904
20
5.5915417536130008
30
0
10
-68.38884246022198
20
6.9178832729139845
30
0
10
-67.649397514705868
20
8.1902418034446107
30
0
10
-66.783504662011765
20
9.4320796583731052
30
0
0
LINE
5
211
100
AcDbEntity
8
0
100
AcDbLine
10
-69.518710336788686
20
1.3917152380770115
30
0
11
-67.309141924286735
21
-14.330180943772444
31
0
0
SPLINE
5
212
100
AcDbEntity
8
0
100
AcDbSpline
70
1064
71
3
72
8
73
4
74
0
42
0.000000001
43
0.0000000001
44
0.0000000001
40
0
40
0
40
0
40
0
40
1
40
1
40
1
40
1
10
-64.87510803854353
20
-18.317601444865467
30
0
10
-66.353583987802125
20
-17.430633758699333
30
0
10
-67.070193619968251
20
-16.037659074713197
30
0
10
-67.309180773188899
20
-14.330186408967675
30
0
0
LINE
5
213
100
AcDbEntity
8
0
100
AcDbLine
10
-64.875083439105325
20
-18.317560537241736
30
0
11
-46.034787300330002
21
-29.637952537850005
31
0
0
ARC
5
214
100
AcDbEntity
8
0
100
AcDbCircle
10
-47.245126776370014
20
-31.652295694500012
30
0
40
2.3500000000000116
100
AcDbArc
50
8.0000000001023164
51
58.999999999971607
0
LINE
5
215
100
AcDbEntity
8
0
100
AcDbLine
10
-44.917996814827895
20
-31.325238907239701
30
0
11
-40.093665428820003
21
-65.652140381989994
31
0
0
ARC
5
216
100
AcDbEntity
8
0
100
AcDbCircle
10
-25.855026922610005
20
-63.651030241300006
30
0
40
14.378569758696393
100
AcDbArc
50
188.00000000000642
51
264.08197986632229
0
ARC
5
217
100
AcDbEntity
8
0
100
AcDbCircle
10
-27.579832403240001
20
-80.290444059869998
30
0
40
2.3500000000000019
100
AcDbArc
50
18.3907026749878
51
84.081979866397276
0
LINE
5
218
100
AcDbEntity
8
0
100
AcDbLine
10
-25.349853438157123
20
-79.549030669589044
30
0
11
-24.828405998360005
21
-81.117409171220004
31
0
0
ARC
5
219
100
AcDbEntity
8
0
100
AcDbCircle
10
-24.888324459580002
20
-81.927696791770018
30
0
40
0.81249999999999933
100
AcDbArc
50
-48.989432377094147
51
85.770837727306201
0
ARC
5
220
100
AcDbEntity
8
0
100
AcDbCircle
10
-17.91079033406
20
-82.249025119609996
30
0
40
6.4509748803933604
100
AcDbArc
50
182.5923483877493
51
270
0
LINE
5
221
100
AcDbEntity
8
0
100
AcDbLine
10
-17.91079033406
20
-88.700000000003996
30
0
11
-7.437436988151001
21
-88.699999999999989
31
0
0
CIRCLE
5
222
100
AcDbEntity
8
0
100
AcDbCircle
10
56.5
20
75.180000000000007
30
0
40
3.5999999999999996
0
CIRCLE
5
223
100
AcDbEntity
8
0
100
AcDbCircle
10
-56.5
20
75.180000000000007
30
0
40
3.5999999999999996
0
CIRCLE
5
224
100
AcDbEntity
8
0
100
AcDbCircle
10
56.5
20
-4.5199999999999996
30
0
40
2.5
0
CIRCLE
5
225
100
AcDbEntity
8
0
100
AcDbCircle
10
-56.5
20
-4.5199999999999996
30
0
40
2.5
0
CIRCLE
5
226
100
AcDbEntity
8
0
100
AcDbCircle
10
33.799999999999997
20
-49.95000000000001
30
0
40
2.7250000000000001
0
CIRCLE
5
227
100
AcDbEntity
8
0
100
AcDbCircle
10
-33.799999999999997
20
-49.95000000000001
30
0
40
2.7250000000000001
0
CIRCLE
5
228
100
AcDbEntity
8
0
100
AcDbCircle
10
17.899999999999999
20
-80.507300000000001
30
0
40
2.7250000000000001
0
CIRCLE
5
229
100
AcDbEntity
8
0
100
AcDbCircle
10
-17.899999999999999
20
-80.507300000000001
30
0
40
2.7250000000000001
0
LWPOLYLINE
5
230
100
AcDbEntity
8
0
100
AcDbPolyline
90
4
70
1
43
0.0
10
12.5
20
-45.77000000000001
10
12.5
20
-35.770000000000003
42
0.99999999999999989
10
-12.5
20
-35.770000000000003
10
-12.5
20
-45.77000000000001
42
0.99999999999999989
0
LWPOLYLINE
5
231
100
AcDbEntity
8
0
100
AcDbPolyline
90
4
70
1
43
0.0
10
26.110000000000003
20
-21.699999999999999
10
26.110000000000003
20
-12.699999999999999
42
0.99999999999999989
10
21.030000000000001
20
-12.699999999999999
10
21.030000000000001
20
-21.699999999999999
42
0.99999999999999989
0
LWPOLYLINE
5
232
100
AcDbEntity
8
0
100
AcDbPolyline
90
4
70
1
43
0.0
10
-21.030000000000001
20
-21.699999999999999
10
-21.030000000000001
20
-12.699999999999999
42
0.99999999999999989
10
-26.110000000000003
20
-12.699999999999999
10
-26.110000000000003
20
-21.699999999999999
42
0.99999999999999989
0
LWPOLYLINE
5
233
100
AcDbEntity
8
0
100
AcDbPolyline
90
4
70
1
43
0.0
10
26.110000000000003
20
-68.840000000000003
10
26.110000000000003
20
-59.840000000000011
42
0.99999999999999989
10
21.030000000000001
20
-59.840000000000011
10
21.030000000000001
20
-68.840000000000003
42
0.99999999999999989
0
LWPOLYLINE
5
234
100
AcDbEntity
8
0
100
AcDbPolyline
90
4
70
1
43
0.0
10
-21.030000000000001
20
-68.840000000000003
10
-21.030000000000001
20
-59.840000000000011
42
0.99999999999999989
10
-26.110000000000003
20
-59.840000000000011
10
-26.110000000000003
20
-68.840000000000003
42
0.99999999999999989
0
LWPOLYLINE
5
235
100
AcDbEntity
8
0
100
AcDbPolyline
90
8
70
1
43
0.0
10
19.8032
20
63.651899999999998
10
-19.8032
20
63.651899999999998
42
0.41421356237309503
10
-35.850000000000001
20
47.6051
10
-35.850000000000001
20
21.998700000000007
42
0.41421356237309515
10
-19.803199999999997
20
5.9519000000000002
10
19.803199999999997
20
5.9519000000000011
42
0.41421356237309509
10
35.850000000000001
20
21.998700000000003
10
35.850000000000001
20
47.6051
42
0.41421356237309503
0
ENDSEC
0
SECTION
2
OBJECTS
0
DICTIONARY
5
C
100
AcDbDictionary
3
ACAD_GROUP
350
D
3
ACAD_MLINESTYLE
350
17
0
DICTIONARY
5
D
100
AcDbDictionary
0
DICTIONARY
5
1A
330
C
100
AcDbDictionary
0
DICTIONARY
5
17
100
AcDbDictionary
0
ENDSEC
0
EOF
