0
SECTION
2
HEADER
9
$ACADVER
1
AC1014
9
$HANDSEED
5
FFFF
0
ENDSEC
0
SECTION
2
TABLES
0
TABLE
2
VPORT
5
8
100
AcDbSymbolTable
0
ENDTAB
0
TABLE
2
LTYPE
5
5
100
AcDbSymbolTable
0
LTYPE
5
14
100
AcDbSymbolTableRecord
100
AcDbLinetypeTableRecord
2
BYBLOCK
70
0
0
LTYPE
5
15
100
AcDbSymbolTableRecord
100
AcDbLinetypeTableRecord
2
BYLAYER
70
0
0
ENDTAB
0
TABLE
2
LAYER
5
2
100
AcDbSymbolTable
70
2
0
LAYER
5
50
100
AcDbSymbolTableRecord
100
AcDbLayerTableRecord
2
0
70
0
6
CONTINUOUS
0
ENDTAB
0
TABLE
2
STYLE
5
3
100
AcDbSymbolTable
70
1
0
STYLE
5
11
100
AcDbSymbolTableRecord
100
AcDbTextStyleTableRecord
2
STANDARD
70
0
0
ENDTAB
0
TABLE
2
VIEW
5
6
100
AcDbSymbolTable
70
0
0
ENDTAB
0
TABLE
2
UCS
5
7
100
AcDbSymbolTable
70
0
0
ENDTAB
0
TABLE
2
APPID
5
9
100
AcDbSymbolTable
70
2
0
APPID
5
12
100
AcDbSymbolTableRecord
100
AcDbRegAppTableRecord
2
ACAD
70
0
0
ENDTAB
0
TABLE
2
DIMSTYLE
5
A
100
AcDbSymbolTable
70
1
0
ENDTAB
0
TABLE
2
BLOCK_RECORD
5
1
100
AcDbSymbolTable
70
1
0
BLOCK_RECORD
5
1F
100
AcDbSymbolTableRecord
100
AcDbBlockTableRecord
2
*MODEL_SPACE
0
BLOCK_RECORD
5
1B
100
AcDbSymbolTableRecord
100
AcDbBlockTableRecord
2
*PAPER_SPACE
0
ENDTAB
0
ENDSEC
0
SECTION
2
BLOCKS
0
BLOCK
5
20
100
AcDbEntity
100
AcDbBlockBegin
2
*MODEL_SPACE
0
ENDBLK
5
21
100
AcDbEntity
100
AcDbBlockEnd
0
BLOCK
5
1C
100
AcDbEntity
100
AcDbBlockBegin
2
*PAPER_SPACE
0
ENDBLK
5
1D
100
AcDbEntity
100
AcDbBlockEnd
0
ENDSEC
0
SECTION
2
ENTITIES
0
ARC
5
100
100
AcDbEntity
8
0
100
AcDbCircle
10
-43.912842482560002
20
-61.509999999999998
30
0
40
2.3500000000000028
100
AcDbArc
50
238.80788351376637
51
270
0
LINE
5
101
100
AcDbEntity
8
0
100
AcDbLine
10
-43.912842482560002
20
-63.859999999999999
30
0
11
-20.34613005053
21
-63.859999999999999
31
0
0
ARC
5
102
100
AcDbEntity
8
0
100
AcDbCircle
10
-20.34613005053
20
-61.509999999999998
30
0
40
2.3500000000000032
100
AcDbArc
50
270
51
310.00000000011772
0
LINE
5
103
100
AcDbEntity
8
0
100
AcDbLine
10
-18.835579167762937
20
-63.310204441326491
30
0
11
-5.6552208322380011
21
-52.250570623210002
31
0
0
ARC
5
104
100
AcDbEntity
8
0
100
AcDbCircle
10
-4.1446699494740002
20
-54.050775064539998
30
0
40
2.3500000000000032
100
AcDbArc
50
90.000000000000014
51
130.0000000000056
0
LINE
5
105
100
AcDbEntity
8
0
100
AcDbLine
10
-4.1446699494740011
20
-51.700775064539997
30
0
11
4.1446699494740002
21
-51.700775064539997
31
0
0
ARC
5
106
100
AcDbEntity
8
0
100
AcDbCircle
10
4.1446699494740002
20
-54.050775064539998
30
0
40
2.3500000000000019
100
AcDbArc
50
49.999999999994387
51
90
0
LINE
5
107
100
AcDbEntity
8
0
100
AcDbLine
10
5.6552208322375428
20
-52.25057062321055
30
0
11
18.835579167759995
21
-63.310204441330001
31
0
0
ARC
5
108
100
AcDbEntity
8
0
100
AcDbCircle
10
20.34613005053
20
-61.509999999999998
30
0
40
2.3500000000045764
100
AcDbArc
50
229.99999999988242
51
270
0
LINE
5
109
100
AcDbEntity
8
0
100
AcDbLine
10
20.34613005053
20
-63.859999999999999
30
0
11
43.912842482560002
21
-63.859999999999999
31
0
0
ARC
5
110
100
AcDbEntity
8
0
100
AcDbCircle
10
43.912842482560002
20
-61.509999999999998
30
0
40
2.3500000000000032
100
AcDbArc
50
270
51
301.19211648623366
0
LINE
5
111
100
AcDbEntity
8
0
100
AcDbLine
10
45.129929366001356
20
-63.520273493372237
30
0
11
63.589037391720439
21
-52.344511423114909
31
0
0
SPLINE
5
112
100
AcDbEntity
8
0
100
AcDbSpline
70
1064
71
3
72
8
73
4
74
0
42
0.000000001
43
0.0000000001
44
0.0000000001
40
0
40
0
40
0
40
0
40
1
40
1
40
1
40
1
10
63.589054786421755
20
-52.344540154756075
30
0
10
65.064296205210695
20
-51.452550942746988
30
0
10
65.779010597355253
20
-50.05755844099636
30
0
10
66.018128735588263
20
-48.350283765246786
30
0
0
LINE
5
113
100
AcDbEntity
8
0
100
AcDbLine
10
66.018101511950661
20
-48.350279939441982
30
0
11
69.517848704822683
21
-23.448284727286726
31
0
0
SPLINE
5
114
100
AcDbEntity
8
0
100
AcDbSpline
70
1064
71
3
72
14
73
10
74
0
42
0.000000001
43
0.0000000001
44
0.0000000001
40
0
40
0
40
0
40
0
40
0.50002774761029689
40
0.50002774761029689
40
0.50002774761029689
40
0.75630814518725287
40
0.75630814518725287
40
0.75630814518725287
40
1
40
1
40
1
40
1
10
66.786020390968375
20
-15.407923725105345
30
0
10
67.652262834673976
20
-16.649707149685945
30
0
10
68.391510419227984
20
-17.922107283614199
30
0
10
68.903591004366675
20
-19.248686806746672
30
0
10
69.16604887111103
20
-19.928601729929699
30
0
10
69.368847051566888
20
-20.62275893464918
30
0
10
69.483295545863754
20
-21.33804897121875
30
0
10
69.592122307954895
20
-22.018203822657885
30
0
10
69.62103611367516
20
-22.71764024014216
30
0
10
69.517885862994078
20
-23.448289942600489
30
0
0
LINE
5
115
100
AcDbEntity
8
0
100
AcDbLine
10
66.786009134362544
20
-15.407931573631259
30
0
11
58.427898105550007
21
-3.4203055584200004
31
0
0
ARC
5
116
100
AcDbEntity
8
0
100
AcDbCircle
10
60.355600000000003
20
-2.0762574171240002
30
0
40
2.3499999999999943
100
AcDbArc
50
180
51
214.88529620115287
0
LINE
5
117
100
AcDbEntity
8
0
100
AcDbLine
10
58.005600000000008
20
-2.0762574171240002
30
0
11
58.005600000000008
21
21.994915777540001
31
0
0
ARC
5
118
100
AcDbEntity
8
0
100
AcDbCircle
10
60.355600000000003
20
21.994915777540001
30
0
40
2.3500000000000023
100
AcDbArc
50
145.14163747474737
51
180
0
LINE
5
119
100
AcDbEntity
8
0
100
AcDbLine
10
58.427266506629472
20
23.338057593710367
30
0
11
67.733176698899257
21
36.698447460136158
31
0
0
SPLINE
5
120
100
AcDbEntity
8
0
100
AcDbSpline
70
1064
71
3
72
11
73
7
74
0
42
0.000000001
43
0.0000000001
44
0.0000000001
40
0
40
0
40
0
40
0
40
0.50002939010770264
40
0.50002939010770264
40
0.50002939010770264
40
1
40
1
40
1
40
1
10
70.00004759494621
20
42.749500038496052
30
0
10
70.000959296114701
20
41.622310425940313
30
0
10
69.737616669716417
20
40.577325632097505
30
0
10
69.33176741753249
20
39.577736467645003
30
0
10
68.925965874357146
20
38.578264808418318
30
-1.1102230246251565e-015
10
68.377412805583447
20
37.623219336644205
30
0
10
67.733180257763124
20
36.698444981304654
30
0
0
LINE
5
121
100
AcDbEntity
8
0
100
AcDbLine
10
70
20
42.749500063120365
30
0
11
70
21
60.500700000000009
31
0
0
ARC
5
122
100
AcDbEntity
8
0
100
AcDbCircle
10
66.640699999999995
20
60.500700000000009
30
0
40
3.3593000000000028
100
AcDbArc
50
0
51
90
0
LINE
5
123
100
AcDbEntity
8
0
100
AcDbLine
10
66.640699999999995
20
63.860000000000014
30
0
11
20.34613005053
21
63.859999999999999
31
0
0
ARC
5
124
100
AcDbEntity
8
0
100
AcDbCircle
10
20.34613005053
20
61.509999999999998
30
0
40
2.3500000000000032
100
AcDbArc
50
90
51
130.00000000011772
0
LINE
5
125
100
AcDbEntity
8
0
100
AcDbLine
10
18.835579167762937
20
63.310204441326491
30
0
11
5.6552208322380011
21
52.250570623210002
31
0
0
ARC
5
126
100
AcDbEntity
8
0
100
AcDbCircle
10
4.1446699494740002
20
54.050775064539998
30
0
40
2.3500000000000032
100
AcDbArc
50
270
51
310.00000000000563
0
LINE
5
127
100
AcDbEntity
8
0
100
AcDbLine
10
4.1446699494740011
20
51.700775064539997
30
0
11
-4.1446699494740002
21
51.700775064539997
31
0
0
ARC
5
128
100
AcDbEntity
8
0
100
AcDbCircle
10
-4.1446699494740002
20
54.050775064539998
30
0
40
2.3500000000000019
100
AcDbArc
50
229.9999999999944
51
270
0
LINE
5
129
100
AcDbEntity
8
0
100
AcDbLine
10
-5.6552208322375428
20
52.25057062321055
30
0
11
-18.835579167759995
21
63.310204441330001
31
0
0
ARC
5
130
100
AcDbEntity
8
0
100
AcDbCircle
10
-20.34613005053
20
61.509999999999998
30
0
40
2.3500000000045764
100
AcDbArc
50
49.999999999882377
51
90
0
LINE
5
131
100
AcDbEntity
8
0
100
AcDbLine
10
-20.34613005053
20
63.859999999999999
30
0
11
-66.640000000000001
21
63.859999999999999
31
0
0
ARC
5
132
100
AcDbEntity
8
0
100
AcDbCircle
10
-66.640000000000001
20
60.500000000000007
30
0
40
3.3599999999999941
100
AcDbArc
50
90
51
180
0
LINE
5
133
100
AcDbEntity
8
0
100
AcDbLine
10
-70.000000000000014
20
60.500000000000007
30
0
11
-70
21
42.74950006291477
31
0
0
SPLINE
5
134
100
AcDbEntity
8
0
100
AcDbSpline
70
1064
71
3
72
11
73
7
74
0
42
0.000000001
43
0.0000000001
44
0.0000000001
40
0
40
0
40
0
40
0
40
0.50002936822605215
40
0.50002936822605215
40
0.50002936822605215
40
1
40
1
40
1
40
1
10
-70.000047517510239
20
42.74950003837067
30
0
10
-70.000957635069213
20
41.622428086090856
30
0
10
-69.73779955355775
20
40.577467222106243
30
0
10
-69.332183346004996
20
39.577865114787507
30
0
10
-68.92661478456759
20
38.578380426734576
30
0
10
-68.378344029462937
20
37.623287436129289
30
0
10
-67.734414918940729
20
36.698444981772205
30
0
0
LINE
5
135
100
AcDbEntity
8
0
100
AcDbLine
10
-67.734414918940729
20
36.698444981772205
30
0
11
-58.431323409220006
21
23.334830757759999
31
0
0
ARC
5
136
100
AcDbEntity
8
0
100
AcDbCircle
10
-60.360000000000007
20
21.992181656850001
30
0
40
2.3499999999999943
100
AcDbArc
50
0
51
34.843723981856826
0
LINE
5
137
100
AcDbEntity
8
0
100
AcDbLine
10
-58.010000000000012
20
21.992181656850001
30
0
11
-58.010000000000005
21
-2.0796514689159995
31
0
0
ARC
5
138
100
AcDbEntity
8
0
100
AcDbCircle
10
-60.360000000000007
20
-2.0796514689159999
30
0
40
2.350000000000001
100
AcDbArc
50
-34.870642982855784
51
0
0
LINE
5
139
100
AcDbEntity
8
0
100
AcDbLine
10
-58.431954432440932
20
-3.423206562470348
30
0
11
-66.783488547865389
21
-15.407931573601608
31
0
0
SPLINE
5
140
100
AcDbEntity
8
0
100
AcDbSpline
70
1064
71
3
72
14
73
10
74
0
42
0.000000001
43
0.0000000001
44
0.0000000001
40
0
40
0
40
0
40
0
40
0.2437644788664963
40
0.2437644788664963
40
0.2437644788664963
40
0.50002751067624562
40
0.50002751067624562
40
0.50002751067624562
40
1
40
1
40
1
40
1
10
-69.518747707902605
20
-23.448289972287306
30
0
10
-69.621937876872465
20
-22.717400820369082
30
0
10
-69.592457268953908
20
-22.017847565098549
30
0
10
-69.483029532360007
20
-21.337575419609998
30
0
10
-69.367991099877855
20
-20.622423633470991
30
0
10
-69.16463021217703
20
-19.928386312358878
30
0
10
-68.901748506463335
20
-19.248550064886665
30
0
10
-68.388862898753317
20
-17.922180753711331
30
0
10
-67.649357671372769
20
-16.649828220788198
30
0
10
-66.783499900866985
20
-15.407923662161934
30
0
0
LINE
5
141
100
AcDbEntity
8
0
100
AcDbLine
10
-69.518710341581752
20
-23.44828472785057
30
0
11
-66.018963148728176
21
-48.350279939874561
31
0
0
SPLINE
5
142
100
AcDbEntity
8
0
100
AcDbSpline
70
1064
71
3
72
8
73
4
74
0
42
0.000000001
43
0.0000000001
44
0.0000000001
40
0
40
0
40
0
40
0
40
1
40
1
40
1
40
1
10
-66.018989816727867
20
-48.350283687597333
30
0
10
-65.779836134106517
20
-50.057730040603133
30
0
10
-65.064446643505306
20
-51.45246122215751
30
0
10
-63.589054980873755
20
-52.344540476382079
30
0
0
LINE
5
143
100
AcDbEntity
8
0
100
AcDbLine
10
-63.589037391523391
20
-52.344511423229449
30
0
11
-45.129929366001356
21
-63.520273493372237
31
0
0
LWPOLYLINE
5
144
100
AcDbEntity
8
0
100
AcDbPolyline
90
4
70
1
43
0.0
10
-26.57
20
-37.539999999999999
42
-0.99999999999999989
10
-20.570000000000004
20
-37.539999999999999
10
-20.570000000000004
20
-46.539999999999999
42
-0.99999999999999989
10
-26.57
20
-46.539999999999999
0
LWPOLYLINE
5
145
100
AcDbEntity
8
0
100
AcDbPolyline
90
4
70
1
43
0.0
10
20.570000000000004
20
-37.539999999999999
42
-0.99999999999999989
10
26.57
20
-37.539999999999999
10
26.57
20
-46.539999999999999
42
-0.99999999999999989
10
20.570000000000004
20
-46.539999999999999
0
LWPOLYLINE
5
146
100
AcDbEntity
8
0
100
AcDbPolyline
90
8
70
1
43
0.0
10
8.4501500000000007
20
-6.1492249354640007
10
-8.4501500000000007
20
-6.1492249354640007
42
0.41421356237309503
10
-17.5
20
-15.199074935460002
10
-17.5
20
-21.099374935459998
42
0.41421356237309503
10
-8.4501500000000007
20
-30.149224935460005
10
8.4501500000000007
20
-30.149224935459998
42
0.41421356237309503
10
17.5
20
-21.099374935459998
10
17.5
20
-15.199074935460002
42
0.41421356237309503
0
CIRCLE
5
147
100
AcDbEntity
8
0
100
AcDbCircle
10
56.5
20
50.340000000000003
30
0
40
3.6000000000000005
0
CIRCLE
5
148
100
AcDbEntity
8
0
100
AcDbCircle
10
-56.5
20
50.340000000000003
30
0
40
3.6000000000000005
0
CIRCLE
5
149
100
AcDbEntity
8
0
100
AcDbCircle
10
56.5
20
-29.359999999999999
30
0
40
2.5
0
CIRCLE
5
150
100
AcDbEntity
8
0
100
AcDbCircle
10
-56.5
20
-29.359999999999999
30
0
40
2.5
0
CIRCLE
5
151
100
AcDbEntity
8
0
100
AcDbCircle
10
39.850000000000001
20
-49.46200000000001
30
0
40
2.5
0
CIRCLE
5
152
100
AcDbEntity
8
0
100
AcDbCircle
10
39.850000000000001
20
-9.4619999999999997
30
0
40
2.5
0
CIRCLE
5
153
100
AcDbEntity
8
0
100
AcDbCircle
10
39.850000000000001
20
0.53800000000000003
30
0
40
2.5
0
CIRCLE
5
154
100
AcDbEntity
8
0
100
AcDbCircle
10
39.850000000000001
20
20.858000000000004
30
0
40
2.5
0
CIRCLE
5
155
100
AcDbEntity
8
0
100
AcDbCircle
10
39.850000000000001
20
41.177999999999997
30
0
40
2.5
0
CIRCLE
5
156
100
AcDbEntity
8
0
100
AcDbCircle
10
39.850000000000001
20
51.177999999999997
30
0
40
2.5
0
CIRCLE
5
157
100
AcDbEntity
8
0
100
AcDbCircle
10
-39.850000000000001
20
-49.46200000000001
30
0
40
3.6000000000000005
0
CIRCLE
5
158
100
AcDbEntity
8
0
100
AcDbCircle
10
-39.850000000000001
20
-9.4619999999999997
30
0
40
3.6000000000000005
0
CIRCLE
5
159
100
AcDbEntity
8
0
100
AcDbCircle
10
-39.850000000000001
20
0.53800000000000003
30
0
40
2.5
0
CIRCLE
5
160
100
AcDbEntity
8
0
100
AcDbCircle
10
-39.850000000000001
20
20.858000000000004
30
0
40
3.6000000000000005
0
CIRCLE
5
161
100
AcDbEntity
8
0
100
AcDbCircle
10
-39.850000000000001
20
41.177999999999997
30
0
40
2.5
0
CIRCLE
5
162
100
AcDbEntity
8
0
100
AcDbCircle
10
-39.850000000000001
20
51.177999999999997
30
0
40
3.6000000000000005
0
CIRCLE
5
163
100
AcDbEntity
8
0
100
AcDbCircle
10
10
20
9.9600000000000009
30
0
40
2.5
0
CIRCLE
5
164
100
AcDbEntity
8
0
100
AcDbCircle
10
-10
20
9.9600000000000009
30
0
40
2.5
0
CIRCLE
5
165
100
AcDbEntity
8
0
100
AcDbCircle
10
31.925000000000004
20
-29.359999999999999
30
0
40
2.5
0
CIRCLE
5
166
100
AcDbEntity
8
0
100
AcDbCircle
10
-31.925000000000004
20
-29.359999999999999
30
0
40
2.5
0
ARC
5
167
100
AcDbEntity
8
0
100
AcDbCircle
10
-43.912842482560002
20
-61.509999999999998
30
0
40
2.3500000000000028
100
AcDbArc
50
238.80788351376637
51
270
0
LINE
5
168
100
AcDbEntity
8
0
100
AcDbLine
10
-43.912842482560002
20
-63.859999999999999
30
0
11
-20.34613005053
21
-63.859999999999999
31
0
0
ARC
5
169
100
AcDbEntity
8
0
100
AcDbCircle
10
-20.34613005053
20
-61.509999999999998
30
0
40
2.3500000000000032
100
AcDbArc
50
270
51
310.00000000011772
0
LINE
5
170
100
AcDbEntity
8
0
100
AcDbLine
10
-18.835579167762937
20
-63.310204441326491
30
0
11
-5.6552208322380011
21
-52.250570623210002
31
0
0
ARC
5
171
100
AcDbEntity
8
0
100
AcDbCircle
10
-4.1446699494740393
20
-54.050775064539927
30
0
40
2.3499999999999233
100
AcDbArc
50
89.999999999999076
51
130.00000000000603
0
LINE
5
172
100
AcDbEntity
8
0
100
AcDbLine
10
-4.1446699494740011
20
-51.700775064540004
30
0
11
4.1446699494740002
21
-51.700775064539997
31
0
0
ARC
5
173
100
AcDbEntity
8
0
100
AcDbCircle
10
4.1446699494739816
20
-54.050775064540048
30
0
40
2.3500000000000472
100
AcDbArc
50
49.999999999994827
51
89.999999999999545
0
LINE
5
174
100
AcDbEntity
8
0
100
AcDbLine
10
5.6552208322375419
20
-52.25057062321055
30
0
11
18.835579167759995
21
-63.310204441330001
31
0
0
ARC
5
175
100
AcDbEntity
8
0
100
AcDbCircle
10
20.34613005053
20
-61.509999999999998
30
0
40
2.3500000000045764
100
AcDbArc
50
229.99999999988242
51
269.99999999999989
0
LINE
5
176
100
AcDbEntity
8
0
100
AcDbLine
10
20.346130050529997
20
-63.859999999999999
30
0
11
43.912842482560002
21
-63.859999999999999
31
0
0
ARC
5
177
100
AcDbEntity
8
0
100
AcDbCircle
10
43.912842482560002
20
-61.509999999999998
30
0
40
2.3500000000000032
100
AcDbArc
50
270
51
301.19211648623366
0
LINE
5
178
100
AcDbEntity
8
0
100
AcDbLine
10
45.129929366001356
20
-63.520273493372237
30
0
11
63.589037391720439
21
-52.344511423114909
31
0
0
SPLINE
5
179
100
AcDbEntity
8
0
100
AcDbSpline
70
1064
71
3
72
8
73
4
74
0
42
0.000000001
43
0.0000000001
44
0.0000000001
40
0
40
0
40
0
40
0
40
1
40
1
40
1
40
1
10
63.589054786421755
20
-52.344540154756075
30
0
10
65.064296205210695
20
-51.452550942746988
30
0
10
65.779010597355253
20
-50.05755844099636
30
0
10
66.018128735588263
20
-48.350283765246786
30
0
0
LINE
5
180
100
AcDbEntity
8
0
100
AcDbLine
10
66.018101511950661
20
-48.350279939441982
30
0
11
69.517848704822683
21
-23.448284727286726
31
0
0
SPLINE
5
181
100
AcDbEntity
8
0
100
AcDbSpline
70
1064
71
3
72
14
73
10
74
0
42
0.000000001
43
0.0000000001
44
0.0000000001
40
0
40
0
40
0
40
0
40
0.50002774761029689
40
0.50002774761029689
40
0.50002774761029689
40
0.75630814518725287
40
0.75630814518725287
40
0.75630814518725287
40
1
40
1
40
1
40
1
10
66.786020390968375
20
-15.407923725105345
30
0
10
67.652262834673976
20
-16.649707149685945
30
0
10
68.391510419227984
20
-17.922107283614199
30
0
10
68.903591004366675
20
-19.248686806746672
30
0
10
69.16604887111103
20
-19.928601729929699
30
0
10
69.368847051566888
20
-20.62275893464918
30
0
10
69.483295545863754
20
-21.33804897121875
30
0
10
69.592122307954895
20
-22.018203822657885
30
0
10
69.62103611367516
20
-22.71764024014216
30
0
10
69.517885862994078
20
-23.448289942600489
30
0
0
LINE
5
182
100
AcDbEntity
8
0
100
AcDbLine
10
66.786009134362544
20
-15.407931573631259
30
0
11
58.427898105550007
21
-3.4203055584200004
31
0
0
ARC
5
183
100
AcDbEntity
8
0
100
AcDbCircle
10
60.355599999999967
20
-2.0762574171240082
30
0
40
2.3499999999999677
100
AcDbArc
50
180
51
214.88529620115321
0
LINE
5
184
100
AcDbEntity
8
0
100
AcDbLine
10
58.005600000000001
20
-2.0762574171240002
30
0
11
58.005600000000008
21
21.994915777540001
31
0
0
ARC
5
185
100
AcDbEntity
8
0
100
AcDbCircle
10
60.355600000000123
20
21.994915777539962
30
0
40
2.3500000000001271
100
AcDbArc
50
145.14163747474828
51
180
0
LINE
5
186
100
AcDbEntity
8
0
100
AcDbLine
10
58.427266506629472
20
23.338057593710367
30
0
11
67.733176698899257
21
36.698447460136158
31
0
0
SPLINE
5
187
100
AcDbEntity
8
0
100
AcDbSpline
70
1064
71
3
72
11
73
7
74
0
42
0.000000001
43
0.0000000001
44
0.0000000001
40
0
40
0
40
0
40
0
40
0.50002939010770264
40
0.50002939010770264
40
0.50002939010770264
40
1
40
1
40
1
40
1
10
70.00004759494621
20
42.749500038496052
30
0
10
70.000959296114701
20
41.622310425940313
30
0
10
69.737616669716417
20
40.577325632097505
30
0
10
69.33176741753249
20
39.577736467645003
30
0
10
68.925965874357146
20
38.578264808418318
30
0
10
68.377412805583447
20
37.623219336644205
30
0
10
67.733180257763124
20
36.698444981304654
30
0
0
LINE
5
188
100
AcDbEntity
8
0
100
AcDbLine
10
70
20
42.749500063120365
30
0
11
70
21
60.500700000000009
31
0
0
ARC
5
189
100
AcDbEntity
8
0
100
AcDbCircle
10
66.640699999999995
20
60.500700000000009
30
0
40
3.3593000000000028
100
AcDbArc
50
0
51
90
0
LINE
5
190
100
AcDbEntity
8
0
100
AcDbLine
10
66.640699999999995
20
63.860000000000014
30
0
11
20.34613005053
21
63.859999999999999
31
0
0
ARC
5
191
100
AcDbEntity
8
0
100
AcDbCircle
10
20.34613005053
20
61.509999999999998
30
0
40
2.3500000000000032
100
AcDbArc
50
90
51
130.00000000011772
0
LINE
5
192
100
AcDbEntity
8
0
100
AcDbLine
10
18.835579167762937
20
63.310204441326491
30
0
11
5.6552208322380011
21
52.250570623210002
31
0
0
ARC
5
193
100
AcDbEntity
8
0
100
AcDbCircle
10
4.1446699494740393
20
54.050775064539927
30
0
40
2.3499999999999233
100
AcDbArc
50
269.99999999999909
51
310.00000000000603
0
LINE
5
194
100
AcDbEntity
8
0
100
AcDbLine
10
4.1446699494740011
20
51.700775064540004
30
0
11
-4.1446699494740002
21
51.700775064539997
31
0
0
ARC
5
195
100
AcDbEntity
8
0
100
AcDbCircle
10
-4.1446699494739816
20
54.050775064540048
30
0
40
2.3500000000000472
100
AcDbArc
50
229.9999999999948
51
269.99999999999955
0
LINE
5
196
100
AcDbEntity
8
0
100
AcDbLine
10
-5.6552208322375419
20
52.25057062321055
30
0
11
-18.835579167759995
21
63.310204441330001
31
0
0
ARC
5
197
100
AcDbEntity
8
0
100
AcDbCircle
10
-20.34613005053
20
61.509999999999998
30
0
40
2.3500000000045764
100
AcDbArc
50
49.999999999882377
51
89.999999999999915
0
LINE
5
198
100
AcDbEntity
8
0
100
AcDbLine
10
-20.346130050529997
20
63.859999999999999
30
0
11
-66.640000000000001
21
63.859999999999999
31
0
0
ARC
5
199
100
AcDbEntity
8
0
100
AcDbCircle
10
-66.640000000000001
20
60.500000000000007
30
0
40
3.3599999999999941
100
AcDbArc
50
90
51
180
0
LINE
5
200
100
AcDbEntity
8
0
100
AcDbLine
10
-70.000000000000014
20
60.500000000000007
30
0
11
-70
21
42.74950006291477
31
0
0
SPLINE
5
201
100
AcDbEntity
8
0
100
AcDbSpline
70
1064
71
3
72
11
73
7
74
0
42
0.000000001
43
0.0000000001
44
0.0000000001
40
0
40
0
40
0
40
0
40
0.50002936822605215
40
0.50002936822605215
40
0.50002936822605215
40
1
40
1
40
1
40
1
10
-70.000047517510239
20
42.74950003837067
30
0
10
-70.000957635069213
20
41.622428086090856
30
0
10
-69.73779955355775
20
40.577467222106243
30
0
10
-69.332183346004996
20
39.577865114787507
30
0
10
-68.92661478456759
20
38.578380426734576
30
0
10
-68.378344029462937
20
37.623287436129289
30
0
10
-67.734414918940729
20
36.698444981772205
30
0
0
LINE
5
202
100
AcDbEntity
8
0
100
AcDbLine
10
-67.734414918940729
20
36.698444981772205
30
0
11
-58.431323409220006
21
23.334830757759999
31
0
0
ARC
5
203
100
AcDbEntity
8
0
100
AcDbCircle
10
-60.359999999999843
20
21.992181656850057
30
0
40
2.3499999999998344
100
AcDbArc
50
0
51
34.843723981857963
0
LINE
5
204
100
AcDbEntity
8
0
100
AcDbLine
10
-58.010000000000012
20
21.992181656850001
30
0
11
-58.010000000000005
21
-2.0796514689159995
31
0
0
ARC
5
205
100
AcDbEntity
8
0
100
AcDbCircle
10
-60.35999999999995
20
-2.079651468916011
30
0
40
2.3499999999999508
100
AcDbArc
50
-34.870642982856346
51
0
0
LINE
5
206
100
AcDbEntity
8
0
100
AcDbLine
10
-58.431954432440932
20
-3.423206562470348
30
0
11
-66.783488547865389
21
-15.407931573601608
31
0
0
SPLINE
5
207
100
AcDbEntity
8
0
100
AcDbSpline
70
1064
71
3
72
14
73
10
74
0
42
0.000000001
43
0.0000000001
44
0.0000000001
40
0
40
0
40
0
40
0
40
0.2437644788664963
40
0.2437644788664963
40
0.2437644788664963
40
0.50002751067624562
40
0.50002751067624562
40
0.50002751067624562
40
1
40
1
40
1
40
1
10
-69.518747707902605
20
-23.448289972287306
30
0
10
-69.621937876872465
20
-22.717400820369082
30
0
10
-69.592457268953908
20
-22.017847565098549
30
0
10
-69.483029532360007
20
-21.337575419609998
30
0
10
-69.367991099877855
20
-20.622423633470991
30
0
10
-69.16463021217703
20
-19.928386312358878
30
0
10
-68.901748506463335
20
-19.248550064886665
30
0
10
-68.388862898753317
20
-17.922180753711331
30
0
10
-67.649357671372769
20
-16.649828220788198
30
0
10
-66.783499900866985
20
-15.407923662161934
30
0
0
LINE
5
208
100
AcDbEntity
8
0
100
AcDbLine
10
-69.518710341581752
20
-23.44828472785057
30
0
11
-66.018963148728176
21
-48.350279939874561
31
0
0
SPLINE
5
209
100
AcDbEntity
8
0
100
AcDbSpline
70
1064
71
3
72
8
73
4
74
0
42
0.000000001
43
0.0000000001
44
0.0000000001
40
0
40
0
40
0
40
0
40
1
40
1
40
1
40
1
10
-66.018989816727867
20
-48.350283687597333
30
0
10
-65.779836134106517
20
-50.057730040603133
30
0
10
-65.064446643505306
20
-51.45246122215751
30
0
10
-63.589054980873755
20
-52.344540476382079
30
0
0
LINE
5
210
100
AcDbEntity
8
0
100
AcDbLine
10
-63.589037391523391
20
-52.344511423229449
30
0
11
-45.129929366001356
21
-63.520273493372237
31
0
0
CIRCLE
5
211
100
AcDbEntity
8
0
100
AcDbCircle
10
56.5
20
50.340000000000003
30
0
40
3.5999999999999996
0
CIRCLE
5
212
100
AcDbEntity
8
0
100
AcDbCircle
10
-56.5
20
50.340000000000003
30
0
40
3.5999999999999996
0
CIRCLE
5
213
100
AcDbEntity
8
0
100
AcDbCircle
10
56.5
20
-29.359999999999999
30
0
40
2.5
0
CIRCLE
5
214
100
AcDbEntity
8
0
100
AcDbCircle
10
-56.5
20
-29.359999999999999
30
0
40
2.5
0
CIRCLE
5
215
100
AcDbEntity
8
0
100
AcDbCircle
10
39.850000000000001
20
-49.46200000000001
30
0
40
2.5
0
CIRCLE
5
216
100
AcDbEntity
8
0
100
AcDbCircle
10
39.850000000000001
20
-9.4619999999999997
30
0
40
2.5
0
CIRCLE
5
217
100
AcDbEntity
8
0
100
AcDbCircle
10
39.850000000000001
20
0.53800000000000003
30
0
40
2.5
0
CIRCLE
5
218
100
AcDbEntity
8
0
100
AcDbCircle
10
39.850000000000001
20
20.858000000000004
30
0
40
2.5
0
CIRCLE
5
219
100
AcDbEntity
8
0
100
AcDbCircle
10
39.850000000000001
20
41.177999999999997
30
0
40
2.5
0
CIRCLE
5
220
100
AcDbEntity
8
0
100
AcDbCircle
10
39.850000000000001
20
51.177999999999997
30
0
40
2.5
0
CIRCLE
5
221
100
AcDbEntity
8
0
100
AcDbCircle
10
-39.850000000000001
20
-49.46200000000001
30
0
40
3.5999999999999996
0
CIRCLE
5
222
100
AcDbEntity
8
0
100
AcDbCircle
10
-39.850000000000001
20
-9.4619999999999997
30
0
40
3.5999999999999996
0
CIRCLE
5
223
100
AcDbEntity
8
0
100
AcDbCircle
10
-39.850000000000001
20
0.53800000000000003
30
0
40
2.5
0
CIRCLE
5
224
100
AcDbEntity
8
0
100
AcDbCircle
10
-39.850000000000001
20
20.858000000000004
30
0
40
3.5999999999999996
0
CIRCLE
5
225
100
AcDbEntity
8
0
100
AcDbCircle
10
-39.850000000000001
20
41.177999999999997
30
0
40
2.5
0
CIRCLE
5
226
100
AcDbEntity
8
0
100
AcDbCircle
10
-39.850000000000001
20
51.177999999999997
30
0
40
3.5999999999999996
0
CIRCLE
5
227
100
AcDbEntity
8
0
100
AcDbCircle
10
10
20
9.9600000000000009
30
0
40
2.5
0
CIRCLE
5
228
100
AcDbEntity
8
0
100
AcDbCircle
10
-10
20
9.9600000000000009
30
0
40
2.5
0
CIRCLE
5
229
100
AcDbEntity
8
0
100
AcDbCircle
10
31.925000000000004
20
-29.359999999999999
30
0
40
2.5
0
CIRCLE
5
230
100
AcDbEntity
8
0
100
AcDbCircle
10
-31.925000000000004
20
-29.359999999999999
30
0
40
2.5
0
LWPOLYLINE
5
231
100
AcDbEntity
8
0
100
AcDbPolyline
90
4
70
1
43
0.0
10
-26.57
20
-37.539999999999999
42
-0.99999999999999989
10
-20.570000000000004
20
-37.539999999999999
10
-20.570000000000004
20
-46.539999999999999
42
-0.99999999999999989
10
-26.57
20
-46.539999999999999
0
LWPOLYLINE
5
232
100
AcDbEntity
8
0
100
AcDbPolyline
90
4
70
1
43
0.0
10
20.570000000000004
20
-37.539999999999999
42
-0.99999999999999989
10
26.57
20
-37.539999999999999
10
26.57
20
-46.539999999999999
42
-0.99999999999999989
10
20.570000000000004
20
-46.539999999999999
0
LWPOLYLINE
5
233
100
AcDbEntity
8
0
100
AcDbPolyline
90
8
70
1
43
0.0
10
8.4501500000000007
20
-6.1492249354640007
10
-8.4501500000000007
20
-6.1492249354640007
42
0.41421356237309503
10
-17.5
20
-15.199074935460002
10
-17.5
20
-21.099374935459998
42
0.41421356237309503
10
-8.4501500000000025
20
-30.149224935460005
10
8.4501499999999989
20
-30.149224935459998
42
0.41421356237309509
10
17.5
20
-21.099374935459998
10
17.5
20
-15.199074935460004
42
0.41421356237309509
0
ENDSEC
0
SECTION
2
OBJECTS
0
DICTIONARY
5
C
100
AcDbDictionary
3
ACAD_GROUP
350
D
3
ACAD_MLINESTYLE
350
17
0
DICTIONARY
5
D
100
AcDbDictionary
0
DICTIONARY
5
1A
330
C
100
AcDbDictionary
0
DICTIONARY
5
17
100
AcDbDictionary
0
ENDSEC
0
EOF
