0
SECTION
2
HEADER
9
$ACADVER
1
AC1014
9
$HANDSEED
5
FFFF
0
ENDSEC
0
SECTION
2
TABLES
0
TABLE
2
VPORT
5
8
100
AcDbSymbolTable
0
ENDTAB
0
TABLE
2
LTYPE
5
5
100
AcDbSymbolTable
0
LTYPE
5
14
100
AcDbSymbolTableRecord
100
AcDbLinetypeTableRecord
2
BYBLOCK
70
0
0
LTYPE
5
15
100
AcDbSymbolTableRecord
100
AcDbLinetypeTableRecord
2
BYLAYER
70
0
0
ENDTAB
0
TABLE
2
LAYER
5
2
100
AcDbSymbolTable
70
2
0
LAYER
5
50
100
AcDbSymbolTableRecord
100
AcDbLayerTableRecord
2
0
70
0
6
CONTINUOUS
0
ENDTAB
0
TABLE
2
STYLE
5
3
100
AcDbSymbolTable
70
1
0
STYLE
5
11
100
AcDbSymbolTableRecord
100
AcDbTextStyleTableRecord
2
STANDARD
70
0
0
ENDTAB
0
TABLE
2
VIEW
5
6
100
AcDbSymbolTable
70
0
0
ENDTAB
0
TABLE
2
UCS
5
7
100
AcDbSymbolTable
70
0
0
ENDTAB
0
TABLE
2
APPID
5
9
100
AcDbSymbolTable
70
2
0
APPID
5
12
100
AcDbSymbolTableRecord
100
AcDbRegAppTableRecord
2
ACAD
70
0
0
ENDTAB
0
TABLE
2
DIMSTYLE
5
A
100
AcDbSymbolTable
70
1
0
ENDTAB
0
TABLE
2
BLOCK_RECORD
5
1
100
AcDbSymbolTable
70
1
0
BLOCK_RECORD
5
1F
100
AcDbSymbolTableRecord
100
AcDbBlockTableRecord
2
*MODEL_SPACE
0
BLOCK_RECORD
5
1B
100
AcDbSymbolTableRecord
100
AcDbBlockTableRecord
2
*PAPER_SPACE
0
ENDTAB
0
ENDSEC
0
SECTION
2
BLOCKS
0
BLOCK
5
20
100
AcDbEntity
100
AcDbBlockBegin
2
*MODEL_SPACE
0
ENDBLK
5
21
100
AcDbEntity
100
AcDbBlockEnd
0
BLOCK
5
1C
100
AcDbEntity
100
AcDbBlockBegin
2
*PAPER_SPACE
0
ENDBLK
5
1D
100
AcDbEntity
100
AcDbBlockEnd
0
ENDSEC
0
SECTION
2
ENTITIES
0
LWPOLYLINE
5
100
100
AcDbEntity
8
0
100
AcDbPolyline
90
10
70
1
43
0.0
10
192.16850825840962
20
113.08043927652413
42
-0.41421356237280105
10
195.5312914577722
20
109.71765607715817
10
195.53129145777217
20
0.3644584940416018
42
-0.10044943389839653
10
192.67977841358331
20
-13.686098661401864
10
134.58788680198086
20
-108.66786044435322
42
-0.26101154507304658
10
124.33846908217546
20
-114.40945062173776
10
25.155306777020051
20
-114.40945062173779
42
-0.41421564336277972
10
15.489778233458527
20
-104.74385435233826
10
15.491291458818676
20
109.71765607715598
42
-0.41421356237373519
10
18.854074658179414
20
113.08043927652407
0
LWPOLYLINE
5
101
100
AcDbEntity
8
0
100
AcDbPolyline
90
4
70
1
43
0.0
10
84.459360316887469
20
3.8744121009333465
10
84.459360316888009
20
12.874388321586405
42
0.99999999999999989
10
79.379374316715655
20
12.874388321587535
10
79.379374316715129
20
3.8744121009342947
42
0.99999999999999989
0
LWPOLYLINE
5
102
100
AcDbEntity
8
0
100
AcDbPolyline
90
4
70
1
43
0.0
10
79.379374316714802
20
-34.36948148001413
10
79.379374316716252
20
-43.369457700667809
42
0.99999999999999989
10
84.459360316886773
20
-43.36945770066891
10
84.459360316887157
20
-34.369481480015374
42
0.99999999999999989
0
LWPOLYLINE
5
103
100
AcDbEntity
8
0
100
AcDbPolyline
90
4
70
1
43
0.0
10
93.443469410257492
20
-94.433437279584297
10
72.443335775800946
20
-94.433437279585405
42
0.99999999999999989
10
72.443335775801472
20
-99.433438900183148
10
93.443469410257336
20
-99.433438900183901
42
0.99999999999999989
0
LWPOLYLINE
5
104
100
AcDbEntity
8
0
100
AcDbPolyline
90
8
70
1
43
0.0
10
55.353814173376392
20
-88.936612327407516
10
28.125863081490134
20
-88.936612327407516
42
0.41421356237312695
10
24.989838627500266
20
-92.072636781397023
10
24.989838627500266
20
-98.260334755099876
42
0.41421356237310758
10
31.638954494175785
20
-104.90945062177566
10
55.353814173376854
20
-104.90945062177566
42
0.41421356237313406
10
58.489838627366247
20
-101.77342616778589
10
58.489838627366225
20
-92.072636781397222
42
0.41421356237308343
0
LWPOLYLINE
5
105
100
AcDbEntity
8
0
100
AcDbPolyline
90
4
70
1
43
0.0
10
93.443469410257265
20
-74.433418372586829
10
72.443335775800648
20
-74.433418372587738
42
0.99999999999999989
10
72.443335775801643
20
-79.4334199931873
10
93.443469410257492
20
-79.43341999318794
42
0.99999999999999989
0
LINE
5
106
100
AcDbEntity
8
0
100
AcDbLine
10
93.031293902002943
20
-20.239725251089105
30
0
11
93.031293902002943
21
-10.239724953100191
31
0
0
ARC
5
107
100
AcDbEntity
8
0
100
AcDbCircle
10
105.5312939031723
20
-10.239724953100191
30
0
40
12.500000001169361
100
AcDbArc
50
3.3066511133632061e-006
51
180
0
LINE
5
108
100
AcDbEntity
8
0
100
AcDbLine
10
118.03129390434164
20
-10.239724211094954
30
0
11
118.03129390434162
21
-20.239724509083722
31
0
0
ARC
5
109
100
AcDbEntity
8
0
100
AcDbCircle
10
105.53129390317225
20
-20.239724509083736
30
0
40
12.500000001169344
100
AcDbArc
50
-179.99999658490543
51
0
0
LWPOLYLINE
5
110
100
AcDbEntity
8
0
100
AcDbPolyline
90
4
70
1
43
0.0
10
126.60322823145997
20
12.874388321586421
10
126.60322823146048
20
3.8744121009333603
42
0.99999999999999989
10
131.6832142316328
20
3.8744121009343102
10
131.68321423163229
20
12.874388321587549
42
0.99999999999999989
0
LWPOLYLINE
5
111
100
AcDbEntity
8
0
100
AcDbPolyline
90
4
70
1
43
0.0
10
131.68321423163172
20
-43.369457700667795
10
131.68321423163317
20
-34.369481480014116
42
0.99999999999999989
10
126.60322823146083
20
-34.369481480015367
10
126.60322823146119
20
-43.369457700668875
42
0.99999999999999989
0
LWPOLYLINE
5
112
100
AcDbEntity
8
0
100
AcDbPolyline
90
4
70
1
43
0.0
10
93.443469410257165
20
-54.433488089977722
10
72.443335775800549
20
-54.43348808997861
42
0.99999999999999989
10
72.443335775801131
20
-59.433464310648311
10
93.443469410257677
20
-59.43346431064888
42
0.99999999999999989
0
LWPOLYLINE
5
113
100
AcDbEntity
8
0
100
AcDbPolyline
90
8
70
1
43
0.0
10
76.774493611010328
20
-102.43035923610631
10
67.894578252779326
20
-102.44463745520932
42
0.41421356237323448
10
66.457735914459661
20
-103.88147979352868
10
66.457735914459974
20
-105.99976950509486
42
0.41421356237293933
10
67.894578252778729
20
-107.43661184341397
10
76.992337137885244
20
-107.43661184341379
42
0.41421356237282891
10
78.429179476205206
20
-105.99976950509503
10
78.443457695308339
20
-104.09932332040441
42
0.41515577494952788
0
LWPOLYLINE
5
114
100
AcDbEntity
8
0
100
AcDbPolyline
90
12
70
1
43
0.0
10
38.022285247106481
20
-62.781522119164535
10
35.552306407549565
20
-62.783081770336523
10
34.582327567986944
20
-61.569828187095503
42
0.95801895035936413
10
29.582327568007347
20
-61.571838090699309
10
28.612348728444317
20
-62.792230783492116
10
26.426638776888225
20
-62.79580033826764
42
0.3937206925597837
10
24.989838627500266
20
-64.337595300688164
10
24.989838627500266
20
-77.586949942584226
42
0.4142135623728026
10
26.426680965817834
20
-79.023792280903223
10
38.022327436036072
20
-79.038070500006626
42
0.42084431916198017
10
39.68543544649193
20
-77.413587712684389
10
39.691291520335888
20
-64.555438827564146
42
0.43254716128329757
0
CIRCLE
5
115
100
AcDbEntity
8
0
100
AcDbCircle
10
30.191291458777002
20
99.416633633734165
30
0
40
3.568699999999994
0
CIRCLE
5
116
100
AcDbEntity
8
0
100
AcDbCircle
10
112.80053533709449
20
-76.904216384358193
30
0
40
2.5006300000000037
0
CIRCLE
5
117
100
AcDbEntity
8
0
100
AcDbCircle
10
52.065695289497455
20
-76.858190171054133
30
0
40
2.5006299999999766
0
CIRCLE
5
118
100
AcDbEntity
8
0
100
AcDbCircle
10
49.191291457534454
20
-15.951915646961767
30
0
40
2.5006300000000174
0
CIRCLE
5
119
100
AcDbEntity
8
0
100
AcDbCircle
10
32.191291073250206
20
-32.899307373422431
30
0
40
2.5006299999999766
0
CIRCLE
5
120
100
AcDbEntity
8
0
100
AcDbCircle
10
70.191291458615765
20
0.055133213626661036
30
0
40
2.5006300000000312
0
CIRCLE
5
121
100
AcDbEntity
8
0
100
AcDbCircle
10
180.83129145898849
20
0.055133212362377219
30
0
40
2.5006300000000312
0
CIRCLE
5
122
100
AcDbEntity
8
0
100
AcDbCircle
10
49.19129145753412
20
79.048084200350729
30
0
40
2.5006300000000312
0
CIRCLE
5
123
100
AcDbEntity
8
0
100
AcDbCircle
10
140.83129145798125
20
0.055133213623323428
30
0
40
2.5006300000000312
0
CIRCLE
5
124
100
AcDbEntity
8
0
100
AcDbCircle
10
30.236524430326313
20
-0.1638567634170483
30
0
40
2.5006300000000174
0
CIRCLE
5
125
100
AcDbEntity
8
0
100
AcDbCircle
10
32.191291411508338
20
-52.899307389677752
30
0
40
2.5006299999999899
0
CIRCLE
5
126
100
AcDbEntity
8
0
100
AcDbCircle
10
53.581703018349138
20
-32.899307373421379
30
0
40
2.5006299999999966
0
CIRCLE
5
127
100
AcDbEntity
8
0
100
AcDbCircle
10
112.80053533708838
20
-56.874490517556069
30
0
40
2.5006300000000037
0
CIRCLE
5
128
100
AcDbEntity
8
0
100
AcDbCircle
10
112.80053533708838
20
-96.904216384265141
30
0
40
2.5006299999999899
0
CIRCLE
5
129
100
AcDbEntity
8
0
100
AcDbCircle
10
180.83129145782101
20
99.41663363373776
30
0
40
3.5687000000000357
0
CIRCLE
5
130
100
AcDbEntity
8
0
100
AcDbCircle
10
105.51129145829302
20
99.416633633736339
30
0
40
3.5687000000000078
0
LWPOLYLINE
5
131
100
AcDbEntity
8
0
100
AcDbPolyline
90
10
70
1
43
0.0
10
192.16850825840962
20
113.08043927652413
42
-0.41421356237280105
10
195.5312914577722
20
109.71765607715817
10
195.53129145777217
20
0.3644584940416018
42
-0.10044943389839653
10
192.67977841358331
20
-13.686098661401864
10
134.58788680198086
20
-108.66786044435322
42
-0.26101154507304697
10
124.33846908217546
20
-114.40945062173776
10
25.155306777020051
20
-114.40945062173779
42
-0.41421564336277972
10
15.489778233458527
20
-104.74385435233826
10
15.491291458818676
20
109.71765607715598
42
-0.41421356237373519
10
18.854074658179414
20
113.08043927652407
0
LWPOLYLINE
5
132
100
AcDbEntity
8
0
100
AcDbPolyline
90
4
70
1
43
0.0
10
84.459360316887469
20
3.8744121009333465
10
84.459360316888009
20
12.874388321586405
42
0.99999999999999989
10
79.379374316715655
20
12.874388321587535
10
79.379374316715129
20
3.8744121009342951
42
0.99999999999999989
0
CIRCLE
5
133
100
AcDbEntity
8
0
100
AcDbCircle
10
30.191291458777002
20
99.416633633734165
30
0
40
3.568699999999994
0
LWPOLYLINE
5
134
100
AcDbEntity
8
0
100
AcDbPolyline
90
4
70
1
43
0.0
10
79.379374316714802
20
-34.36948148001413
10
79.379374316716252
20
-43.369457700667809
42
0.99999999999999989
10
84.459360316886773
20
-43.36945770066891
10
84.459360316887157
20
-34.369481480015374
42
0.99999999999999989
0
CIRCLE
5
135
100
AcDbEntity
8
0
100
AcDbCircle
10
112.80053533709449
20
-76.904216384358193
30
0
40
2.5006300000000037
0
CIRCLE
5
136
100
AcDbEntity
8
0
100
AcDbCircle
10
52.065695289497455
20
-76.858190171054133
30
0
40
2.5006299999999766
0
CIRCLE
5
137
100
AcDbEntity
8
0
100
AcDbCircle
10
49.191291457534454
20
-15.951915646961767
30
0
40
2.5006300000000174
0
CIRCLE
5
138
100
AcDbEntity
8
0
100
AcDbCircle
10
32.191291073250206
20
-32.899307373422431
30
0
40
2.5006299999999766
0
CIRCLE
5
139
100
AcDbEntity
8
0
100
AcDbCircle
10
70.191291458615765
20
0.055133213626661036
30
0
40
2.5006300000000312
0
CIRCLE
5
140
100
AcDbEntity
8
0
100
AcDbCircle
10
180.83129145898849
20
0.055133212362377219
30
0
40
2.5006300000000312
0
LWPOLYLINE
5
141
100
AcDbEntity
8
0
100
AcDbPolyline
90
4
70
1
43
0.0
10
93.443469410257492
20
-94.433437279584297
10
72.443335775800946
20
-94.433437279585405
42
0.99999999999999989
10
72.443335775801472
20
-99.433438900183148
10
93.443469410257336
20
-99.433438900183901
42
0.99999999999999989
0
LWPOLYLINE
5
142
100
AcDbEntity
8
0
100
AcDbPolyline
90
8
70
1
43
0.0
10
55.353814173376392
20
-88.936612327407516
10
28.125863081490134
20
-88.936612327407516
42
0.41421356237312695
10
24.989838627500266
20
-92.072636781397023
10
24.989838627500266
20
-98.260334755099876
42
0.41421356237310758
10
31.638954494175785
20
-104.90945062177566
10
55.353814173376854
20
-104.90945062177566
42
0.41421356237313406
10
58.489838627366247
20
-101.77342616778589
10
58.489838627366225
20
-92.072636781397222
42
0.41421356237308343
0
LWPOLYLINE
5
143
100
AcDbEntity
8
0
100
AcDbPolyline
90
4
70
1
43
0.0
10
93.443469410257265
20
-74.433418372586829
10
72.443335775800648
20
-74.433418372587738
42
0.99999999999999989
10
72.443335775801643
20
-79.4334199931873
10
93.443469410257492
20
-79.43341999318794
42
0.99999999999999989
0
LINE
5
144
100
AcDbEntity
8
0
100
AcDbLine
10
93.031293902002943
20
-20.239725251089105
30
0
11
93.031293902002943
21
-10.239724953100191
31
0
0
ARC
5
145
100
AcDbEntity
8
0
100
AcDbCircle
10
105.5312939031723
20
-10.239724953100191
30
0
40
12.500000001169361
100
AcDbArc
50
3.3066511133632061e-006
51
180
0
LINE
5
146
100
AcDbEntity
8
0
100
AcDbLine
10
118.03129390434164
20
-10.239724211094956
30
0
11
118.03129390434162
21
-20.239724509083722
31
0
0
ARC
5
147
100
AcDbEntity
8
0
100
AcDbCircle
10
105.53129390317225
20
-20.239724509083736
30
0
40
12.500000001169344
100
AcDbArc
50
-179.99999658490543
51
0
0
LWPOLYLINE
5
148
100
AcDbEntity
8
0
100
AcDbPolyline
90
4
70
1
43
0.0
10
126.60322823145997
20
12.874388321586421
10
126.60322823146048
20
3.8744121009333603
42
0.99999999999999989
10
131.6832142316328
20
3.8744121009343102
10
131.68321423163229
20
12.874388321587549
42
0.99999999999999989
0
LWPOLYLINE
5
149
100
AcDbEntity
8
0
100
AcDbPolyline
90
4
70
1
43
0.0
10
131.68321423163172
20
-43.369457700667795
10
131.68321423163317
20
-34.369481480014116
42
0.99999999999999989
10
126.60322823146083
20
-34.369481480015367
10
126.60322823146119
20
-43.369457700668875
42
0.99999999999999989
0
LWPOLYLINE
5
150
100
AcDbEntity
8
0
100
AcDbPolyline
90
4
70
1
43
0.0
10
93.443469410257165
20
-54.433488089977722
10
72.443335775800549
20
-54.43348808997861
42
0.99999999999999989
10
72.443335775801131
20
-59.433464310648311
10
93.443469410257677
20
-59.43346431064888
42
0.99999999999999989
0
LWPOLYLINE
5
151
100
AcDbEntity
8
0
100
AcDbPolyline
90
8
70
1
43
0.0
10
76.774493611010328
20
-102.43035923610631
10
67.894578252779326
20
-102.44463745520932
42
0.41421356237323448
10
66.457735914459661
20
-103.88147979352868
10
66.457735914459974
20
-105.99976950509486
42
0.41421356237293933
10
67.894578252778729
20
-107.43661184341397
10
76.992337137885244
20
-107.43661184341379
42
0.41421356237282891
10
78.429179476205206
20
-105.99976950509503
10
78.443457695308339
20
-104.09932332040441
42
0.41515577494952788
0
LWPOLYLINE
5
152
100
AcDbEntity
8
0
100
AcDbPolyline
90
12
70
1
43
0.0
10
38.022285247106481
20
-62.781522119164535
10
35.552306407549565
20
-62.783081770336523
10
34.582327567986944
20
-61.569828187095503
42
0.95801895035936413
10
29.582327568007347
20
-61.571838090699309
10
28.612348728444317
20
-62.792230783492116
10
26.426638776888225
20
-62.79580033826764
42
0.3937206925597837
10
24.989838627500266
20
-64.337595300688164
10
24.989838627500266
20
-77.586949942584226
42
0.4142135623728026
10
26.426680965817834
20
-79.023792280903223
10
38.022327436036072
20
-79.038070500006626
42
0.42084431916198017
10
39.68543544649193
20
-77.413587712684389
10
39.691291520335888
20
-64.555438827564146
42
0.43254716128329757
0
CIRCLE
5
153
100
AcDbEntity
8
0
100
AcDbCircle
10
49.19129145753412
20
79.048084200350729
30
0
40
2.5006300000000312
0
CIRCLE
5
154
100
AcDbEntity
8
0
100
AcDbCircle
10
140.83129145798125
20
0.055133213623323428
30
0
40
2.5006300000000312
0
CIRCLE
5
155
100
AcDbEntity
8
0
100
AcDbCircle
10
30.236524430326313
20
-0.1638567634170483
30
0
40
2.5006300000000174
0
CIRCLE
5
156
100
AcDbEntity
8
0
100
AcDbCircle
10
32.191291411508338
20
-52.899307389677752
30
0
40
2.5006299999999899
0
CIRCLE
5
157
100
AcDbEntity
8
0
100
AcDbCircle
10
53.581703018349138
20
-32.899307373421379
30
0
40
2.5006299999999966
0
CIRCLE
5
158
100
AcDbEntity
8
0
100
AcDbCircle
10
112.80053533708838
20
-56.874490517556069
30
0
40
2.5006300000000037
0
CIRCLE
5
159
100
AcDbEntity
8
0
100
AcDbCircle
10
112.80053533708838
20
-96.904216384265141
30
0
40
2.5006299999999899
0
CIRCLE
5
160
100
AcDbEntity
8
0
100
AcDbCircle
10
180.83129145782101
20
99.41663363373776
30
0
40
3.5687000000000357
0
CIRCLE
5
161
100
AcDbEntity
8
0
100
AcDbCircle
10
105.51129145829302
20
99.416633633736339
30
0
40
3.5687000000000078
0
ENDSEC
0
SECTION
2
OBJECTS
0
DICTIONARY
5
C
100
AcDbDictionary
3
ACAD_GROUP
350
D
3
ACAD_MLINESTYLE
350
17
0
DICTIONARY
5
D
100
AcDbDictionary
0
DICTIONARY
5
1A
330
C
100
AcDbDictionary
0
DICTIONARY
5
17
100
AcDbDictionary
0
ENDSEC
0
EOF
