0
SECTION
2
HEADER
9
$ACADVER
1
AC1014
9
$HANDSEED
5
FFFF
0
ENDSEC
0
SECTION
2
TABLES
0
TABLE
2
VPORT
5
8
100
AcDbSymbolTable
0
ENDTAB
0
TABLE
2
LTYPE
5
5
100
AcDbSymbolTable
0
LTYPE
5
14
100
AcDbSymbolTableRecord
100
AcDbLinetypeTableRecord
2
BYBLOCK
70
0
0
LTYPE
5
15
100
AcDbSymbolTableRecord
100
AcDbLinetypeTableRecord
2
BYLAYER
70
0
0
ENDTAB
0
TABLE
2
LAYER
5
2
100
AcDbSymbolTable
70
2
0
LAYER
5
50
100
AcDbSymbolTableRecord
100
AcDbLayerTableRecord
2
0
70
0
6
CONTINUOUS
0
ENDTAB
0
TABLE
2
STYLE
5
3
100
AcDbSymbolTable
70
1
0
STYLE
5
11
100
AcDbSymbolTableRecord
100
AcDbTextStyleTableRecord
2
STANDARD
70
0
0
ENDTAB
0
TABLE
2
VIEW
5
6
100
AcDbSymbolTable
70
0
0
ENDTAB
0
TABLE
2
UCS
5
7
100
AcDbSymbolTable
70
0
0
ENDTAB
0
TABLE
2
APPID
5
9
100
AcDbSymbolTable
70
2
0
APPID
5
12
100
AcDbSymbolTableRecord
100
AcDbRegAppTableRecord
2
ACAD
70
0
0
ENDTAB
0
TABLE
2
DIMSTYLE
5
A
100
AcDbSymbolTable
70
1
0
ENDTAB
0
TABLE
2
BLOCK_RECORD
5
1
100
AcDbSymbolTable
70
1
0
BLOCK_RECORD
5
1F
100
AcDbSymbolTableRecord
100
AcDbBlockTableRecord
2
*MODEL_SPACE
0
BLOCK_RECORD
5
1B
100
AcDbSymbolTableRecord
100
AcDbBlockTableRecord
2
*PAPER_SPACE
0
ENDTAB
0
ENDSEC
0
SECTION
2
BLOCKS
0
BLOCK
5
20
100
AcDbEntity
100
AcDbBlockBegin
2
*MODEL_SPACE
0
ENDBLK
5
21
100
AcDbEntity
100
AcDbBlockEnd
0
BLOCK
5
1C
100
AcDbEntity
100
AcDbBlockBegin
2
*PAPER_SPACE
0
ENDBLK
5
1D
100
AcDbEntity
100
AcDbBlockEnd
0
ENDSEC
0
SECTION
2
ENTITIES
0
LWPOLYLINE
5
100
100
AcDbEntity
8
0
100
AcDbPolyline
90
8
70
1
43
0.0
10
-30
20
5
10
-30
20
96.599999999999994
42
-0.41421356237309503
10
-25
20
101.59999999999999
10
25
20
101.59999999999999
42
-0.41421356237309503
10
30
20
96.599999999999994
10
30.000000000000004
20
5.0000000000000053
42
-0.41421356237309481
10
25.000000000000004
20
0
10
-24.999999999999996
20
4.4408920985006262e-015
42
-0.41421356237309503
0
CIRCLE
5
101
100
AcDbEntity
8
0
100
AcDbCircle
10
19.999999999999993
20
91.59999999999998
30
0
40
2.9999999999999756
0
CIRCLE
5
102
100
AcDbEntity
8
0
100
AcDbCircle
10
-9.9931178810424013e-015
20
91.59999999999998
30
0
40
2.9999999999999756
0
CIRCLE
5
103
100
AcDbEntity
8
0
100
AcDbCircle
10
-20.000000000000014
20
91.59999999999998
30
0
40
2.9999999999999756
0
CIRCLE
5
104
100
AcDbEntity
8
0
100
AcDbCircle
10
-20
20
50.799999999999983
30
0
40
3.0000000000000098
0
CIRCLE
5
105
100
AcDbEntity
8
0
100
AcDbCircle
10
1.4741149636099179e-046
20
50.79999999999999
30
0
40
3.0000000000000098
0
CIRCLE
5
106
100
AcDbEntity
8
0
100
AcDbCircle
10
20
20
50.799999999999997
30
0
40
3.0000000000000098
0
CIRCLE
5
107
100
AcDbEntity
8
0
100
AcDbCircle
10
0
20
10
30
0
40
3.0000000000000049
0
CIRCLE
5
108
100
AcDbEntity
8
0
100
AcDbCircle
10
20
20
10
30
0
40
3.0000000000000049
0
CIRCLE
5
109
100
AcDbEntity
8
0
100
AcDbCircle
10
-20
20
10
30
0
40
3.0000000000000049
0
LWPOLYLINE
5
110
100
AcDbEntity
8
0
100
AcDbPolyline
90
8
70
1
43
0.0
10
-30
20
5
10
-30
20
96.599999999999994
42
-0.41421356237309503
10
-25
20
101.59999999999999
10
25
20
101.59999999999999
42
-0.41421356237309503
10
30
20
96.599999999999994
10
30.000000000000004
20
5.0000000000000053
42
-0.41421356237309481
10
25.000000000000004
20
0
10
-24.999999999999996
20
4.4408920985006262e-015
42
-0.41421356237309503
0
CIRCLE
5
111
100
AcDbEntity
8
0
100
AcDbCircle
10
19.999999999999993
20
91.59999999999998
30
0
40
2.9999999999999756
0
CIRCLE
5
112
100
AcDbEntity
8
0
100
AcDbCircle
10
-9.9931178810424013e-015
20
91.59999999999998
30
0
40
2.9999999999999756
0
CIRCLE
5
113
100
AcDbEntity
8
0
100
AcDbCircle
10
-20.000000000000014
20
91.59999999999998
30
0
40
2.9999999999999756
0
CIRCLE
5
114
100
AcDbEntity
8
0
100
AcDbCircle
10
-20
20
50.799999999999983
30
0
40
3.0000000000000098
0
CIRCLE
5
115
100
AcDbEntity
8
0
100
AcDbCircle
10
1.4741149636099179e-046
20
50.79999999999999
30
0
40
3.0000000000000098
0
CIRCLE
5
116
100
AcDbEntity
8
0
100
AcDbCircle
10
20
20
50.799999999999997
30
0
40
3.0000000000000098
0
CIRCLE
5
117
100
AcDbEntity
8
0
100
AcDbCircle
10
0
20
10
30
0
40
3.0000000000000044
0
CIRCLE
5
118
100
AcDbEntity
8
0
100
AcDbCircle
10
20
20
10
30
0
40
3.0000000000000044
0
CIRCLE
5
119
100
AcDbEntity
8
0
100
AcDbCircle
10
-20
20
10
30
0
40
3.0000000000000044
0
ENDSEC
0
SECTION
2
OBJECTS
0
DICTIONARY
5
C
100
AcDbDictionary
3
ACAD_GROUP
350
D
3
ACAD_MLINESTYLE
350
17
0
DICTIONARY
5
D
100
AcDbDictionary
0
DICTIONARY
5
1A
330
C
100
AcDbDictionary
0
DICTIONARY
5
17
100
AcDbDictionary
0
ENDSEC
0
EOF
