0
SECTION
2
HEADER
9
$ACADVER
1
AC1014
9
$HANDSEED
5
FFFF
0
ENDSEC
0
SECTION
2
TABLES
0
TABLE
2
VPORT
5
8
100
AcDbSymbolTable
0
ENDTAB
0
TABLE
2
LTYPE
5
5
100
AcDbSymbolTable
0
LTYPE
5
14
100
AcDbSymbolTableRecord
100
AcDbLinetypeTableRecord
2
BYBLOCK
70
0
0
LTYPE
5
15
100
AcDbSymbolTableRecord
100
AcDbLinetypeTableRecord
2
BYLAYER
70
0
0
ENDTAB
0
TABLE
2
LAYER
5
2
100
AcDbSymbolTable
70
2
0
LAYER
5
50
100
AcDbSymbolTableRecord
100
AcDbLayerTableRecord
2
0
70
0
6
CONTINUOUS
0
ENDTAB
0
TABLE
2
STYLE
5
3
100
AcDbSymbolTable
70
1
0
STYLE
5
11
100
AcDbSymbolTableRecord
100
AcDbTextStyleTableRecord
2
STANDARD
70
0
0
ENDTAB
0
TABLE
2
VIEW
5
6
100
AcDbSymbolTable
70
0
0
ENDTAB
0
TABLE
2
UCS
5
7
100
AcDbSymbolTable
70
0
0
ENDTAB
0
TABLE
2
APPID
5
9
100
AcDbSymbolTable
70
2
0
APPID
5
12
100
AcDbSymbolTableRecord
100
AcDbRegAppTableRecord
2
ACAD
70
0
0
ENDTAB
0
TABLE
2
DIMSTYLE
5
A
100
AcDbSymbolTable
70
1
0
ENDTAB
0
TABLE
2
BLOCK_RECORD
5
1
100
AcDbSymbolTable
70
1
0
BLOCK_RECORD
5
1F
100
AcDbSymbolTableRecord
100
AcDbBlockTableRecord
2
*MODEL_SPACE
0
BLOCK_RECORD
5
1B
100
AcDbSymbolTableRecord
100
AcDbBlockTableRecord
2
*PAPER_SPACE
0
ENDTAB
0
ENDSEC
0
SECTION
2
BLOCKS
0
BLOCK
5
20
100
AcDbEntity
100
AcDbBlockBegin
2
*MODEL_SPACE
0
ENDBLK
5
21
100
AcDbEntity
100
AcDbBlockEnd
0
BLOCK
5
1C
100
AcDbEntity
100
AcDbBlockBegin
2
*PAPER_SPACE
0
ENDBLK
5
1D
100
AcDbEntity
100
AcDbBlockEnd
0
ENDSEC
0
SECTION
2
ENTITIES
0
LWPOLYLINE
5
100
100
AcDbEntity
8
0
100
AcDbPolyline
90
19
70
1
43
0.0
10
103.443473293907
20
-112.409450621738
10
103.443473293908
20
-46.934674723907897
42
0.41421356237309503
10
101.443473293908
20
-44.934674723907904
10
46.206491535371697
20
-44.934674723907342
42
-0.4090676436628935
10
44.206801328730698
20
-42.969875256065805
10
44.177625304801907
20
-22.906141695905703
42
0.41421356237309503
10
42.174719088008501
20
-20.909052141897103
10
40.677643112795529
20
-20.911230208798116
10
17.490369751765201
20
-20.911067668119301
42
-0.4142135623730947
10
15.4903838636746
20
-18.911053556309501
10
15.491291458818392
20
109.71765607715599
42
-0.41421356237370577
10
18.854074658179414
20
113.080439276524
10
192.16850825840999
20
113.080439276524
42
-0.41421356237274543
10
195.531291457772
20
109.71765607715801
10
195.53129145777191
20
0.36445849404159958
42
-0.10044943389839833
10
192.67977841358299
20
-13.6860986614019
10
134.5917851049858
20
-108.66148661700689
42
-0.26117757981970635
10
124.33846635897501
20
-114.40945062173799
10
105.443473293907
20
-114.40945062173799
42
-0.41421356237309503
0
CIRCLE
5
101
100
AcDbEntity
8
0
100
AcDbCircle
10
49.191295341184698
20
-15.951915646961199
30
0
40
2.5006300000000197
0
CIRCLE
5
102
100
AcDbEntity
8
0
100
AcDbCircle
10
112.80053922073901
20
-56.8744905175555
30
0
40
2.5006299999999997
0
CIRCLE
5
103
100
AcDbEntity
8
0
100
AcDbCircle
10
112.80053922074501
20
-76.904216384357696
30
0
40
2.5006299999999997
0
CIRCLE
5
104
100
AcDbEntity
8
0
100
AcDbCircle
10
53.581706901999404
20
-32.899307373420903
30
0
40
2.5006299999999899
0
CIRCLE
5
105
100
AcDbEntity
8
0
100
AcDbCircle
10
112.80053922073901
20
-96.9042163842646
30
0
40
2.5006299999999899
0
CIRCLE
5
106
100
AcDbEntity
8
0
100
AcDbCircle
10
30.191291458777002
20
99.416633633734207
30
0
40
3.56869999999999
0
CIRCLE
5
107
100
AcDbEntity
8
0
100
AcDbCircle
10
70.191291458615808
20
0.055133213626661001
30
0
40
2.5006300000000299
0
CIRCLE
5
108
100
AcDbEntity
8
0
100
AcDbCircle
10
180.83129145898798
20
0.055133212362377199
30
0
40
2.5006300000000197
0
CIRCLE
5
109
100
AcDbEntity
8
0
100
AcDbCircle
10
49.191291457534099
20
79.048084200350701
30
0
40
2.5006300000000299
0
CIRCLE
5
110
100
AcDbEntity
8
0
100
AcDbCircle
10
140.831291457981
20
0.0551332136233234
30
0
40
2.5006300000000299
0
CIRCLE
5
111
100
AcDbEntity
8
0
100
AcDbCircle
10
30.236524430326298
20
-0.16385676341704802
30
0
40
2.5006300000000197
0
CIRCLE
5
112
100
AcDbEntity
8
0
100
AcDbCircle
10
180.83129145782098
20
99.416633633737703
30
0
40
3.5687000000000202
0
CIRCLE
5
113
100
AcDbEntity
8
0
100
AcDbCircle
10
105.511291458293
20
99.416633633736296
30
0
40
3.5687000000000104
0
LWPOLYLINE
5
114
100
AcDbEntity
8
0
100
AcDbPolyline
90
19
70
1
43
0.0
10
103.443473293907
20
-112.409450621738
10
103.443473293908
20
-46.934674723907897
42
0.41421356237309503
10
101.443473293908
20
-44.934674723907904
10
46.206491535371697
20
-44.934674723907349
42
-0.40906764366289228
10
44.206801328730698
20
-42.969875256065805
10
44.177625304801907
20
-22.906141695905703
42
0.41421356237309503
10
42.174719088008501
20
-20.909052141897103
10
40.677643112795529
20
-20.911230208798116
10
17.490369751765201
20
-20.911067668119298
42
-0.41421356237309437
10
15.4903838636746
20
-18.911053556309501
10
15.491291458818392
20
109.71765607715599
42
-0.41421356237370577
10
18.854074658179414
20
113.080439276524
10
192.16850825840999
20
113.080439276524
42
-0.41421356237274543
10
195.531291457772
20
109.71765607715801
10
195.53129145777191
20
0.36445849404159958
42
-0.10044943389839833
10
192.67977841358299
20
-13.6860986614019
10
134.5917851049858
20
-108.66148661700689
42
-0.26117757981970552
10
124.33846635897501
20
-114.40945062173799
10
105.443473293907
20
-114.40945062173799
42
-0.41421356237309503
0
CIRCLE
5
115
100
AcDbEntity
8
0
100
AcDbCircle
10
49.191295341184698
20
-15.951915646961199
30
0
40
2.5006300000000197
0
CIRCLE
5
116
100
AcDbEntity
8
0
100
AcDbCircle
10
112.80053922073901
20
-56.8744905175555
30
0
40
2.5006299999999997
0
CIRCLE
5
117
100
AcDbEntity
8
0
100
AcDbCircle
10
112.80053922074501
20
-76.904216384357696
30
0
40
2.5006299999999997
0
CIRCLE
5
118
100
AcDbEntity
8
0
100
AcDbCircle
10
53.581706901999404
20
-32.899307373420903
30
0
40
2.5006299999999899
0
CIRCLE
5
119
100
AcDbEntity
8
0
100
AcDbCircle
10
112.80053922073901
20
-96.9042163842646
30
0
40
2.5006299999999899
0
CIRCLE
5
120
100
AcDbEntity
8
0
100
AcDbCircle
10
30.191291458777002
20
99.416633633734207
30
0
40
3.56869999999999
0
CIRCLE
5
121
100
AcDbEntity
8
0
100
AcDbCircle
10
70.191291458615808
20
0.055133213626661001
30
0
40
2.5006300000000299
0
CIRCLE
5
122
100
AcDbEntity
8
0
100
AcDbCircle
10
180.83129145898798
20
0.055133212362377199
30
0
40
2.5006300000000197
0
CIRCLE
5
123
100
AcDbEntity
8
0
100
AcDbCircle
10
49.191291457534099
20
79.048084200350701
30
0
40
2.5006300000000299
0
CIRCLE
5
124
100
AcDbEntity
8
0
100
AcDbCircle
10
140.831291457981
20
0.0551332136233234
30
0
40
2.5006300000000299
0
CIRCLE
5
125
100
AcDbEntity
8
0
100
AcDbCircle
10
30.236524430326298
20
-0.16385676341704802
30
0
40
2.5006300000000197
0
CIRCLE
5
126
100
AcDbEntity
8
0
100
AcDbCircle
10
180.83129145782098
20
99.416633633737703
30
0
40
3.5687000000000202
0
CIRCLE
5
127
100
AcDbEntity
8
0
100
AcDbCircle
10
105.511291458293
20
99.416633633736296
30
0
40
3.5687000000000104
0
ENDSEC
0
SECTION
2
OBJECTS
0
DICTIONARY
5
C
100
AcDbDictionary
3
ACAD_GROUP
350
D
3
ACAD_MLINESTYLE
350
17
0
DICTIONARY
5
D
100
AcDbDictionary
0
DICTIONARY
5
1A
330
C
100
AcDbDictionary
0
DICTIONARY
5
17
100
AcDbDictionary
0
ENDSEC
0
EOF
