0
SECTION
2
HEADER
9
$ACADVER
1
AC1014
9
$HANDSEED
5
FFFF
0
ENDSEC
0
SECTION
2
TABLES
0
TABLE
2
VPORT
5
8
100
AcDbSymbolTable
0
ENDTAB
0
TABLE
2
LTYPE
5
5
100
AcDbSymbolTable
0
LTYPE
5
14
100
AcDbSymbolTableRecord
100
AcDbLinetypeTableRecord
2
BYBLOCK
70
0
0
LTYPE
5
15
100
AcDbSymbolTableRecord
100
AcDbLinetypeTableRecord
2
BYLAYER
70
0
0
ENDTAB
0
TABLE
2
LAYER
5
2
100
AcDbSymbolTable
70
2
0
LAYER
5
50
100
AcDbSymbolTableRecord
100
AcDbLayerTableRecord
2
0
70
0
6
CONTINUOUS
0
ENDTAB
0
TABLE
2
STYLE
5
3
100
AcDbSymbolTable
70
1
0
STYLE
5
11
100
AcDbSymbolTableRecord
100
AcDbTextStyleTableRecord
2
STANDARD
70
0
0
ENDTAB
0
TABLE
2
VIEW
5
6
100
AcDbSymbolTable
70
0
0
ENDTAB
0
TABLE
2
UCS
5
7
100
AcDbSymbolTable
70
0
0
ENDTAB
0
TABLE
2
APPID
5
9
100
AcDbSymbolTable
70
2
0
APPID
5
12
100
AcDbSymbolTableRecord
100
AcDbRegAppTableRecord
2
ACAD
70
0
0
ENDTAB
0
TABLE
2
DIMSTYLE
5
A
100
AcDbSymbolTable
70
1
0
ENDTAB
0
TABLE
2
BLOCK_RECORD
5
1
100
AcDbSymbolTable
70
1
0
BLOCK_RECORD
5
1F
100
AcDbSymbolTableRecord
100
AcDbBlockTableRecord
2
*MODEL_SPACE
0
BLOCK_RECORD
5
1B
100
AcDbSymbolTableRecord
100
AcDbBlockTableRecord
2
*PAPER_SPACE
0
ENDTAB
0
ENDSEC
0
SECTION
2
BLOCKS
0
BLOCK
5
20
100
AcDbEntity
100
AcDbBlockBegin
2
*MODEL_SPACE
0
ENDBLK
5
21
100
AcDbEntity
100
AcDbBlockEnd
0
BLOCK
5
1C
100
AcDbEntity
100
AcDbBlockBegin
2
*PAPER_SPACE
0
ENDBLK
5
1D
100
AcDbEntity
100
AcDbBlockEnd
0
ENDSEC
0
SECTION
2
ENTITIES
0
LWPOLYLINE
5
100
100
AcDbEntity
8
0
100
AcDbPolyline
90
20
70
1
43
0.0
10
60.000000000000007
20
17.080129069786473
42
-0.21433237316576501
10
58.320332383429559
20
13.341761396115373
10
23.980332383430209
20
-17.158238603884616
42
-0.18358282095179518
10
20.660000000000661
20
-18.41987093021352
10
-7.9999999999999893
20
-18.419870930213467
42
-0.41421356237309503
10
-9.9999999999999911
20
-16.419870930213463
10
-9.9999999999999929
20
6.7252701093064484
42
0.19893873839305018
10
-10.585929943451335
20
8.1396271629433556
10
-19.414070056548656
20
16.965975896345839
42
-0.19893873839305065
10
-19.999999999999993
20
18.380332949982744
10
-20
20
20.779925189590301
42
-0.19893873839305284
10
-19.414070056548653
20
22.194282243227224
10
-10.585929943451347
20
31.020630976629707
42
0.19893873839305265
10
-9.9999999999999929
20
32.434988030266624
10
-9.9999999999999982
20
55.580129069786508
42
-0.41421356237309814
10
-7.9999999999999849
20
57.580129069786523
10
20.660000000000647
20
57.58012906978648
42
-0.18358282095179471
10
23.980332383430195
20
56.31849674345758
10
58.320332383429523
20
25.818496743457636
42
-0.21433237316576872
10
60.000000000000036
20
22.080129069786473
0
LWPOLYLINE
5
101
100
AcDbEntity
8
0
100
AcDbPolyline
90
4
70
1
43
0.0
10
3.8500000000000001
20
2.4999999999999902
42
-0.99999999999999989
10
3.8500000000000001
20
-2.4999999999999902
10
-3.8500000000000001
20
-2.4999999999999902
42
-0.99999999999999989
10
-3.8500000000000001
20
2.4999999999999902
0
LWPOLYLINE
5
102
100
AcDbEntity
8
0
100
AcDbPolyline
90
6
70
1
43
0.0
10
-6.3497726758290884
20
20.033713041663937
42
-0.41816894922248865
10
-3.8500000000000001
20
22.567426083327863
10
3.8499999999999996
20
22.567426083327867
42
-0.41816894922248865
10
6.3497726758290884
20
20.033713041663937
42
-0.41816894922248921
10
3.8500000000000001
20
17.500000000000007
10
-3.8499999999999996
20
17.500000000000011
42
-0.41816894922248921
0
LWPOLYLINE
5
103
100
AcDbEntity
8
0
100
AcDbPolyline
90
4
70
1
43
0.0
10
3.8500000000000001
20
42.499999999999993
42
-0.99999999999999989
10
3.8500000000000001
20
37.500000000000007
10
-3.8500000000000001
20
37.500000000000007
42
-0.99999999999999989
10
-3.8500000000000001
20
42.499999999999993
0
CIRCLE
5
104
100
AcDbEntity
8
0
100
AcDbCircle
10
20.660000000000206
20
19.580129069786526
30
0
40
4
0
CIRCLE
5
105
100
AcDbEntity
8
0
100
AcDbCircle
10
20.660000000000657
20
-14.050414337439587
30
0
40
2.5277365387311077
0
CIRCLE
5
106
100
AcDbEntity
8
0
100
AcDbCircle
10
20.660000000000007
20
53.238409212000029
30
0
40
2.5277365387305837
0
CIRCLE
5
107
100
AcDbEntity
8
0
100
AcDbCircle
10
-12.998282784479594
20
19.580129069786523
30
0
40
2.5277365387305823
0
CIRCLE
5
108
100
AcDbEntity
8
0
100
AcDbCircle
10
54.318282784479734
20
19.580129069786633
30
0
40
2.5277365387305837
0
LWPOLYLINE
5
109
100
AcDbEntity
8
0
100
AcDbPolyline
90
20
70
1
43
0.0
10
60.000000000000007
20
17.080129069786473
42
-0.21433237316576501
10
58.320332383429559
20
13.341761396115373
10
23.980332383430209
20
-17.158238603884616
42
-0.18358282095179518
10
20.660000000000661
20
-18.41987093021352
10
-7.9999999999999893
20
-18.419870930213467
42
-0.41421356237309503
10
-9.9999999999999911
20
-16.419870930213463
10
-9.9999999999999929
20
6.7252701093064493
42
0.19893873839304863
10
-10.585929943451335
20
8.1396271629433556
10
-19.414070056548656
20
16.965975896345839
42
-0.19893873839305065
10
-19.999999999999993
20
18.380332949982744
10
-20
20
20.779925189590301
42
-0.19893873839305284
10
-19.414070056548653
20
22.194282243227224
10
-10.585929943451347
20
31.020630976629707
42
0.1989387383930519
10
-9.9999999999999929
20
32.434988030266624
10
-9.9999999999999982
20
55.580129069786501
42
-0.41421356237309948
10
-7.9999999999999849
20
57.580129069786523
10
20.660000000000647
20
57.58012906978648
42
-0.18358282095179471
10
23.980332383430195
20
56.31849674345758
10
58.320332383429523
20
25.818496743457636
42
-0.21433237316576872
10
60.000000000000036
20
22.080129069786473
0
CIRCLE
5
110
100
AcDbEntity
8
0
100
AcDbCircle
10
20.660000000000206
20
19.580129069786526
30
0
40
4
0
CIRCLE
5
111
100
AcDbEntity
8
0
100
AcDbCircle
10
20.660000000000657
20
-14.050414337439587
30
0
40
2.5277365387311077
0
CIRCLE
5
112
100
AcDbEntity
8
0
100
AcDbCircle
10
20.660000000000007
20
53.238409212000029
30
0
40
2.5277365387305837
0
LWPOLYLINE
5
113
100
AcDbEntity
8
0
100
AcDbPolyline
90
4
70
1
43
0.0
10
3.8500000000000005
20
2.4999999999999902
42
-0.99999999999999989
10
3.8499999999999996
20
-2.4999999999999902
10
-3.8500000000000005
20
-2.4999999999999902
42
-0.99999999999999989
10
-3.8499999999999996
20
2.4999999999999902
0
LWPOLYLINE
5
114
100
AcDbEntity
8
0
100
AcDbPolyline
90
6
70
1
43
0.0
10
-6.3497726758290884
20
20.033713041663937
42
-0.41816894922248871
10
-3.8499999999999996
20
22.567426083327863
10
3.8499999999999996
20
22.567426083327867
42
-0.41816894922248865
10
6.3497726758290884
20
20.033713041663937
42
-0.41816894922248926
10
3.8499999999999996
20
17.500000000000007
10
-3.8499999999999996
20
17.500000000000011
42
-0.41816894922248921
0
LWPOLYLINE
5
115
100
AcDbEntity
8
0
100
AcDbPolyline
90
4
70
1
43
0.0
10
3.8500000000000005
20
42.499999999999993
42
-0.99999999999999989
10
3.8499999999999996
20
37.500000000000007
10
-3.8500000000000005
20
37.500000000000007
42
-0.99999999999999989
10
-3.8499999999999996
20
42.499999999999993
0
CIRCLE
5
116
100
AcDbEntity
8
0
100
AcDbCircle
10
-12.998282784479594
20
19.580129069786523
30
0
40
2.5277365387305823
0
CIRCLE
5
117
100
AcDbEntity
8
0
100
AcDbCircle
10
54.318282784479734
20
19.580129069786633
30
0
40
2.5277365387305837
0
ENDSEC
0
SECTION
2
OBJECTS
0
DICTIONARY
5
C
100
AcDbDictionary
3
ACAD_GROUP
350
D
3
ACAD_MLINESTYLE
350
17
0
DICTIONARY
5
D
100
AcDbDictionary
0
DICTIONARY
5
1A
330
C
100
AcDbDictionary
0
DICTIONARY
5
17
100
AcDbDictionary
0
ENDSEC
0
EOF
